<?xml version="1.0" encoding="UTF-8"?>
<!-- Generator: Adobe Illustrator 15.1.0, SVG Export Plug-In . SVG Version: 6.00 Build 0)  -->
<!DOCTYPE svg PUBLIC "-//W3C//DTD SVG 1.1//EN" "http://www.w3.org/Graphics/SVG/1.1/DTD/svg11.dtd">
<svg version="1.1" xmlns="http://www.w3.org/2000/svg" xmlns:xlink="http://www.w3.org/1999/xlink" x="0px" y="0px" width="490.462px" height="152.416px" viewBox="0 0 490.462 152.416" enable-background="new 0 0 490.462 152.416" xml:space="preserve">
<g id="lines">
	<line fill="none" stroke="#FFCF01" stroke-width="2" stroke-miterlimit="10" x1="87.913" y1="58.278" x2="484.764" y2="58.278"/>
	<line fill="none" stroke="#FFCF01" stroke-width="2" stroke-miterlimit="10" x1="87.913" y1="80.278" x2="484.764" y2="80.278"/>
	<line fill="none" stroke="#FFCF01" stroke-width="2" stroke-miterlimit="10" x1="87.913" y1="115.559" x2="484.764" y2="115.559"/>
	<line fill="none" stroke="#FFCF01" stroke-width="2" stroke-miterlimit="10" x1="87.913" y1="133.778" x2="484.764" y2="133.778"/>
</g>
<g id="word__x2B__highlights">
	<g>
		<path d="M137.657,75.694c-0.806-3.866-1.611-5.879-2.497-7.167c-1.369-1.933-2.658-2.577-8.778-2.577h-5.638v39.704    c0,6.362,0.644,7.167,8.215,7.651v2.255h-23.034v-2.255c7.329-0.483,7.973-1.289,7.973-7.651V65.949h-4.993    c-6.685,0-8.295,0.725-9.342,2.497c-0.966,1.369-1.61,3.705-2.577,7.248h-2.335c0.403-4.832,0.806-10.067,0.966-14.497h1.611    c1.127,1.853,2.175,2.014,4.43,2.014h31.812c2.174,0,2.819-0.483,4.027-2.014h1.691c0.081,3.705,0.402,9.584,0.886,14.255    L137.657,75.694z"/>
		<path d="M174.707,82.459c-4.269,0.644-4.913,1.289-7.087,5.798c-2.094,4.269-4.591,10.953-10.148,24.241    c-5.396,12.886-7.167,17.477-8.295,21.745c-0.403,1.611-1.45,2.014-2.577,2.014c-2.255,0-4.51-1.933-4.51-3.866    c0-1.289,0.645-2.013,2.014-2.98c2.577-1.53,4.107-3.543,6.04-7.087c1.45-2.819,2.094-4.51,2.497-5.557    c0.403-1.208,0.322-2.255-0.161-3.624c-3.221-9.181-6.845-18.926-9.181-24.644c-1.772-4.43-2.497-5.477-6.926-6.04v-2.094h16.268    l0.081,2.094c-3.785,0.563-4.188,1.369-3.06,4.429l7.248,20.134c2.255-5.477,5.798-14.98,7.409-20.054    c0.966-2.979,0.483-3.946-4.188-4.51v-2.094h14.577V82.459z"/>
		<path d="M194.199,80.687c1.45-0.886,2.979-1.289,3.946-1.289c8.939,0,14.255,7.329,14.255,15.221    c0,12.161-9.584,19.973-20.054,21.906c-2.416-0.081-4.51-0.886-5.557-1.45v10.55c0,6.121,0.564,6.604,6.765,7.087v2.174h-19.006    v-2.174c5.154-0.483,5.879-0.967,5.879-6.282V90.029c0-5.235-0.322-5.396-5.315-6.04v-1.933c3.382-0.564,7.892-1.933,11.677-3.463    v6.362L194.199,80.687z M186.79,109.438c1.772,1.852,4.752,3.141,7.571,3.141c6.765,0,11.275-5.798,11.275-14.818    c0-8.698-4.993-13.53-10.792-13.53c-2.577,0-5.879,1.772-8.054,3.463V109.438z"/>
		<path d="M254.2,97.358c0,12.966-9.504,19.167-17.477,19.167c-11.033,0-17.637-8.859-17.637-17.798    c0-13.289,10.309-19.329,17.717-19.329C246.791,79.398,254.2,87.452,254.2,97.358z M226.576,96.15    c0,10.147,4.349,17.718,11.033,17.718c4.993,0,9.101-3.705,9.101-14.738c0-9.342-3.785-17.074-10.953-17.074    C230.925,82.056,226.576,87.049,226.576,96.15z"/>
		<path d="M294.873,81.009c-0.725,1.289-2.335,3.382-3.624,4.107l-4.59-0.242c1.449,1.691,2.416,4.269,2.416,7.087    c0,8.698-7.249,12.886-14.094,12.886c-1.289,0-2.819-0.161-4.107-0.402c-1.047,0.725-2.416,2.255-2.416,3.382    c0,1.53,1.449,3.061,5.073,3.061c2.979,0,5.799-0.081,8.537-0.081c4.993,0,11.517,1.61,11.517,9.503    c0,8.134-9.342,15.946-20.054,15.946c-9.02,0-13.933-5.235-14.013-9.825c0-1.772,0.725-3.302,1.933-4.51    c1.61-1.611,4.751-4.107,6.685-5.638c-2.899-0.886-4.913-2.738-5.96-4.429c-0.725-1.127-0.967-2.577-0.886-3.383    c3.222-1.208,5.799-3.302,7.087-4.913c-3.624-1.53-7.087-5.315-7.087-10.792c0-9.101,8.215-13.369,14.416-13.369h0.08    c2.658,0,5.315,0.725,7.731,2.174c3.866-0.241,7.974-0.725,10.953-1.208L294.873,81.009z M269.585,118.136    c-2.094,1.772-3.704,4.027-3.704,6.282c0,4.43,4.671,7.731,10.63,7.731c7.651,0,11.598-3.946,11.598-8.939    c0-2.738-1.369-4.751-3.624-5.718c-2.014-0.806-4.349-1.047-7.893-1.047C272.887,116.445,271.035,116.928,269.585,118.136z     M268.216,91.479c0,6.282,3.141,10.792,7.57,10.792c3.544-0.081,6.685-3.221,6.685-9.583c0-6.282-2.979-10.792-7.65-10.792    C271.438,81.895,268.216,85.277,268.216,91.479z"/>
		<path d="M310.016,88.016c2.416-4.107,5.879-8.617,9.745-8.617c2.737,0,4.671,2.174,4.671,4.027c0,1.611-1.047,3.221-2.577,3.946    c-0.967,0.403-1.611,0.322-2.094-0.161c-1.209-1.127-2.175-1.611-3.464-1.611c-2.094,0-4.671,2.335-6.442,6.846v14.738    c0,5.315,0.402,5.798,6.604,6.282v2.094h-18.523v-2.094c4.994-0.483,5.558-0.967,5.558-6.282V90.512    c0-5.315-0.322-5.637-4.993-6.201v-1.852c3.946-0.645,7.489-1.611,11.355-3.222v8.778H310.016z"/>
		<path d="M353.184,116.525c-1.208,0-2.899-0.725-3.785-1.61c-1.047-1.047-1.53-2.175-1.933-3.544    c-3.222,2.175-7.087,5.154-9.503,5.154c-5.719,0-9.665-4.751-9.665-9.825c0-3.946,2.094-6.443,6.523-7.973    c4.832-1.611,10.712-3.785,12.483-5.235v-1.369c0-5.879-2.738-9.101-6.846-9.101c-1.53,0-2.738,0.564-3.624,1.53    c-0.967,1.127-1.691,2.899-2.336,5.315c-0.402,1.289-1.208,1.853-2.335,1.853c-1.45,0-3.463-1.53-3.463-3.463    c0-1.127,0.966-2.094,2.496-3.221c2.175-1.611,7.49-4.671,12.08-5.638c2.417,0,4.833,0.725,6.604,2.174    c2.818,2.417,3.624,5.638,3.624,9.906v14.899c0,3.624,1.449,4.832,2.818,4.832c0.967,0,2.095-0.402,2.899-0.886l0.806,2.094    L353.184,116.525z M347.305,96.23c-1.691,0.886-5.557,2.577-7.248,3.382c-3.142,1.45-4.913,2.98-4.913,5.96    c0,4.107,3.222,6.121,5.718,6.121c2.095,0,4.913-1.369,6.443-2.899V96.23z"/>
		<path d="M380.005,80.687c1.45-0.886,2.98-1.289,3.946-1.289c8.939,0,14.255,7.329,14.255,15.221    c0,12.161-9.584,19.973-20.053,21.906c-2.416-0.081-4.511-0.886-5.558-1.45v10.55c0,6.121,0.563,6.604,6.766,7.087v2.174h-19.007    v-2.174c5.154-0.483,5.879-0.967,5.879-6.282V90.029c0-5.235-0.322-5.396-5.315-6.04v-1.933c3.383-0.564,7.893-1.933,11.678-3.463    v6.362L380.005,80.687z M372.596,109.438c1.772,1.852,4.752,3.141,7.57,3.141c6.766,0,11.275-5.798,11.275-14.818    c0-8.698-4.993-13.53-10.792-13.53c-2.577,0-5.879,1.772-8.054,3.463V109.438z"/>
		<path d="M424.947,115.559v-2.094c4.671-0.483,5.315-0.967,5.315-6.202V93.895c0-6.604-2.497-9.906-7.893-9.906    c-3.061,0-6.121,1.53-8.376,4.107v19.167c0,5.154,0.402,5.718,5.234,6.202v2.094h-17.154l0.081-2.094    c4.832-0.403,5.477-0.886,5.477-6.202V68.848c0-5.074-0.161-5.396-5.477-5.879v-1.933c3.865-0.563,8.698-1.852,11.839-2.818v27.06    c2.899-2.899,7.168-5.879,11.517-5.879c6.523,0,11.114,4.107,11.114,13.771v14.094c0,5.315,0.644,5.799,5.314,6.202v2.094H424.947    z"/>
		<path d="M480.278,82.459c-4.269,0.644-4.913,1.289-7.087,5.798c-2.094,4.269-4.591,10.953-10.147,24.241    c-5.396,12.886-7.168,17.477-8.296,21.745c-0.402,1.611-1.449,2.014-2.577,2.014c-2.255,0-4.51-1.933-4.51-3.866    c0-1.289,0.645-2.013,2.014-2.98c2.577-1.53,4.107-3.543,6.04-7.087c1.45-2.819,2.094-4.51,2.497-5.557    c0.402-1.208,0.322-2.255-0.161-3.624c-3.222-9.181-6.846-18.926-9.182-24.644c-1.771-4.43-2.496-5.477-6.926-6.04v-2.094h16.269    l0.08,2.094c-3.785,0.563-4.188,1.369-3.061,4.429l7.248,20.134c2.256-5.477,5.799-14.98,7.41-20.054    c0.966-2.979,0.482-3.946-4.188-4.51v-2.094h14.577V82.459z"/>
	</g>
	<path fill="#D34F1D" d="M133.469,63.211h-31.812c-0.907,0-1.613-0.033-2.212-0.184v5.608c0.04-0.062,0.077-0.131,0.118-0.189   c1.047-1.772,2.658-2.497,9.342-2.497h4.993h6.846h3.376h2.261c6.121,0,7.409,0.644,8.778,2.577   c0.04,0.058,0.079,0.126,0.118,0.187v-5.71C134.802,63.146,134.233,63.211,133.469,63.211z"/>
	<path fill="#D34F1D" d="M147.246,128.257c-0.413-0.127-0.826-0.198-1.237-0.238c-0.578,0.513-1.201,0.974-1.906,1.393   c-1.369,0.967-2.014,1.691-2.014,2.98c0,1.933,2.255,3.866,4.51,3.866c1.127,0,2.174-0.403,2.577-2.014   c0.313-1.186,0.681-2.404,1.158-3.812C149.622,129.45,148.555,128.66,147.246,128.257z"/>
	<path fill="#D34F1D" d="M226.577,96.15c0,10.147,4.349,17.718,11.034,17.718c4.992,0,9.1-3.705,9.1-14.738   c0-9.342-3.785-17.074-10.952-17.074C230.925,82.056,226.577,87.049,226.577,96.15z"/>
	<path fill="#D34F1D" d="M282.068,110.808c-0.589,0-1.185,0.005-1.782,0.011c-4.611,1.149-12.366,5.4-12.15,5.466   c-1.934,1.529-5.074,4.026-6.685,5.637c-1.208,1.209-1.933,2.738-1.933,4.511c0.08,4.591,4.993,9.825,14.013,9.825   c10.712,0,20.054-7.813,20.054-15.946C293.585,112.418,287.062,110.808,282.068,110.808z M276.511,132.149   c-5.959,0-10.63-3.302-10.63-7.731c0-2.255,1.61-4.51,3.704-6.282c1.45-1.207,3.302-1.691,7.007-1.691   c3.544,0,5.879,0.242,7.893,1.048c2.255,0.966,3.624,2.979,3.624,5.718C288.108,128.203,284.162,132.149,276.511,132.149z"/>
	<path fill="#D34F1D" d="M318.288,79.615c-3.269,0.941-6.168,4.823-8.272,8.4h-0.161v4.43c1.771-4.51,4.349-6.846,6.442-6.846   c0.733,0,1.362,0.163,1.991,0.506V79.615z"/>
	<path fill="#D34F1D" d="M286.744,84.985c-0.029-0.036-0.056-0.076-0.085-0.11l0.006,0c-0.991-1.382-1.307-1.953-3.901-3.722   c-2.21-1.167-4.593-1.755-6.978-1.755h-0.08c-6.201,0-14.416,4.269-14.416,13.369c0,5.133,3.043,8.781,6.409,10.478   c0,0,0.001,0.001,0.002,0.001c0.224,0.113,0.449,0.217,0.676,0.313c-0.002,0.002-0.005,0.005-0.007,0.007   c0.806,0.344,2,0.72,4.101,1.115c0.854,0.101,1.726,0.166,2.511,0.166c6.845,0,14.094-4.188,14.094-12.886   c0-2.4-0.705-4.62-1.809-6.272C287.069,85.431,286.897,85.198,286.744,84.985z M275.786,102.271c-4.43,0-7.57-4.51-7.57-10.792   c0-6.202,3.222-9.584,6.604-9.584c4.671,0,7.65,4.51,7.65,10.792C282.471,99.049,279.33,102.19,275.786,102.271z"/>
</g>
<g id="terminology">
	<g>
		<path d="M123.874,10.08c0,0.588,0.028,1.121,0.056,1.639h-0.616l-0.042-1.19h-0.028c-0.336,0.616-1.106,1.345-2.311,1.345    c-0.854,0-2.283-0.42-2.283-2.97V4.995h0.658v3.782c0,1.457,0.462,2.507,1.793,2.507c0.98,0,1.695-0.687,1.975-1.359    c0.07-0.21,0.14-0.476,0.14-0.742V4.995h0.658V10.08z"/>
		<path d="M126.14,7.138c0-0.84-0.028-1.513-0.056-2.143h0.63l0.056,1.275h0.028c0.476-0.896,1.303-1.429,2.479-1.429    c1.723,0,2.885,1.429,2.885,3.404c0,2.41-1.429,3.628-3.054,3.628c-0.966,0-1.821-0.435-2.283-1.247h-0.028v3.866h-0.658V7.138z     M126.798,9.071c0,0.182,0.028,0.364,0.056,0.532c0.28,1.037,1.176,1.709,2.213,1.709c1.541,0,2.423-1.247,2.423-3.04    c0-1.513-0.84-2.886-2.367-2.886c-0.98,0-1.933,0.687-2.227,1.793c-0.042,0.182-0.098,0.393-0.098,0.574V9.071z"/>
		<path d="M133.868,7.138c0-0.84-0.028-1.513-0.056-2.143h0.63l0.056,1.275h0.028c0.476-0.896,1.303-1.429,2.479-1.429    c1.723,0,2.885,1.429,2.885,3.404c0,2.41-1.429,3.628-3.054,3.628c-0.966,0-1.821-0.435-2.283-1.247h-0.028v3.866h-0.658V7.138z     M134.526,9.071c0,0.182,0.028,0.364,0.056,0.532c0.28,1.037,1.177,1.709,2.213,1.709c1.541,0,2.423-1.247,2.423-3.04    c0-1.513-0.84-2.886-2.367-2.886c-0.98,0-1.933,0.687-2.227,1.793c-0.042,0.182-0.098,0.393-0.098,0.574V9.071z"/>
		<path d="M141.693,8.287c0,2.157,1.177,2.998,2.563,2.998c0.98,0,1.485-0.196,1.863-0.378l0.168,0.532    c-0.252,0.14-0.938,0.435-2.115,0.435c-1.933,0-3.138-1.415-3.138-3.39c0-2.241,1.289-3.642,3.026-3.642    c2.199,0,2.619,2.073,2.619,3.04c0,0.182,0,0.294-0.028,0.406H141.693z M145.98,7.754c0.014-0.938-0.378-2.367-2.003-2.367    c-1.485,0-2.129,1.331-2.241,2.367H145.98z"/>
		<path d="M148.386,7.012c0-0.672-0.028-1.373-0.056-2.017h0.616l0.028,1.359h0.028c0.294-0.841,0.995-1.513,1.919-1.513    c0.084,0,0.182,0.014,0.266,0.028v0.644c-0.098-0.028-0.196-0.028-0.322-0.028c-0.924,0-1.583,0.798-1.765,1.877    c-0.028,0.196-0.056,0.42-0.056,0.645v3.712h-0.658V7.012z"/>
		<path d="M156.998,11.424c-0.294,0.154-0.995,0.448-1.961,0.448c-1.947,0-3.236-1.415-3.236-3.446c0-2.129,1.457-3.586,3.474-3.586    c0.826,0,1.499,0.238,1.765,0.42l-0.238,0.546c-0.336-0.182-0.854-0.392-1.597-0.392c-1.807,0-2.731,1.387-2.731,2.969    c0,1.751,1.106,2.9,2.662,2.9c0.798,0,1.316-0.224,1.681-0.378L156.998,11.424z"/>
		<path d="M162.78,10.122c0,0.532,0.028,1.079,0.098,1.597h-0.602l-0.098-0.966h-0.042c-0.322,0.518-1.064,1.121-2.143,1.121    c-1.345,0-1.975-0.953-1.975-1.849c0-1.555,1.373-2.494,4.104-2.465V7.39c0-0.672-0.126-2.003-1.723-1.989    c-0.588,0-1.205,0.154-1.681,0.504l-0.21-0.49c0.602-0.406,1.359-0.575,1.961-0.575c1.947,0,2.312,1.457,2.312,2.662V10.122z     M162.122,8.118c-1.471-0.042-3.404,0.182-3.404,1.793c0,0.967,0.645,1.401,1.345,1.401c1.121,0,1.751-0.687,1.989-1.345    c0.042-0.14,0.07-0.28,0.07-0.406V8.118z"/>
		<path d="M164.682,10.836c0.364,0.224,0.911,0.462,1.513,0.462c1.064,0,1.569-0.574,1.569-1.274c0-0.743-0.448-1.135-1.415-1.527    c-1.107-0.42-1.709-1.022-1.709-1.835c0-0.967,0.756-1.821,2.073-1.821c0.616,0,1.134,0.182,1.484,0.42l-0.266,0.546    c-0.224-0.168-0.658-0.406-1.331-0.406c-0.854,0-1.303,0.546-1.303,1.163c0,0.7,0.477,1.009,1.387,1.387    c1.093,0.42,1.737,0.967,1.737,1.989c0,1.148-0.896,1.933-2.27,1.933c-0.658,0-1.261-0.196-1.709-0.477L164.682,10.836z"/>
		<path d="M170.281,8.287c0,2.157,1.177,2.998,2.563,2.998c0.98,0,1.485-0.196,1.863-0.378l0.168,0.532    c-0.252,0.14-0.938,0.435-2.115,0.435c-1.933,0-3.138-1.415-3.138-3.39c0-2.241,1.289-3.642,3.026-3.642    c2.199,0,2.619,2.073,2.619,3.04c0,0.182,0,0.294-0.028,0.406H170.281z M174.568,7.754c0.014-0.938-0.378-2.367-2.003-2.367    c-1.485,0-2.129,1.331-2.241,2.367H174.568z"/>
		<path d="M111.021,28.224c-0.294,0.154-0.995,0.448-1.961,0.448c-1.947,0-3.236-1.415-3.236-3.446c0-2.129,1.457-3.586,3.474-3.586    c0.826,0,1.499,0.238,1.765,0.42l-0.238,0.546c-0.336-0.182-0.854-0.392-1.597-0.392c-1.807,0-2.731,1.387-2.731,2.969    c0,1.751,1.106,2.9,2.662,2.9c0.798,0,1.316-0.224,1.681-0.378L111.021,28.224z"/>
		<path d="M112.629,18.573h0.658v4.426h0.028c0.196-0.378,0.519-0.742,0.925-0.98c0.378-0.238,0.84-0.378,1.358-0.378    c0.63,0,2.326,0.322,2.326,2.816v4.062h-0.659V24.54c0-1.219-0.476-2.325-1.849-2.325c-0.953,0-1.751,0.686-2.031,1.527    c-0.07,0.196-0.098,0.392-0.098,0.658v4.118h-0.658V18.573z"/>
		<path d="M124.308,26.921c0,0.532,0.028,1.079,0.098,1.597h-0.602l-0.098-0.966h-0.042c-0.322,0.518-1.064,1.121-2.143,1.121    c-1.345,0-1.975-0.953-1.975-1.849c0-1.555,1.373-2.494,4.104-2.465V24.19c0-0.672-0.126-2.003-1.723-1.989    c-0.588,0-1.205,0.154-1.681,0.504l-0.21-0.49c0.602-0.406,1.359-0.575,1.961-0.575c1.947,0,2.312,1.457,2.312,2.662V26.921z     M123.649,24.918c-1.471-0.042-3.404,0.182-3.404,1.793c0,0.967,0.645,1.401,1.345,1.401c1.121,0,1.751-0.687,1.989-1.345    c0.042-0.14,0.07-0.28,0.07-0.406V24.918z"/>
		<path d="M126.489,23.812c0-0.672-0.028-1.373-0.056-2.017h0.616l0.028,1.359h0.028c0.294-0.841,0.995-1.513,1.919-1.513    c0.084,0,0.182,0.014,0.266,0.028v0.644c-0.098-0.028-0.196-0.028-0.322-0.028c-0.924,0-1.583,0.798-1.765,1.877    c-0.028,0.196-0.056,0.42-0.056,0.645v3.712h-0.658V23.812z"/>
		<path d="M134.793,26.921c0,0.532,0.028,1.079,0.098,1.597h-0.602l-0.098-0.966h-0.042c-0.322,0.518-1.064,1.121-2.143,1.121    c-1.345,0-1.975-0.953-1.975-1.849c0-1.555,1.373-2.494,4.104-2.465V24.19c0-0.672-0.126-2.003-1.723-1.989    c-0.588,0-1.205,0.154-1.681,0.504l-0.21-0.49c0.602-0.406,1.359-0.575,1.961-0.575c1.947,0,2.312,1.457,2.312,2.662V26.921z     M134.135,24.918c-1.471-0.042-3.404,0.182-3.404,1.793c0,0.967,0.645,1.401,1.345,1.401c1.121,0,1.751-0.687,1.989-1.345    c0.042-0.14,0.07-0.28,0.07-0.406V24.918z"/>
		<path d="M141.611,28.224c-0.294,0.154-0.995,0.448-1.961,0.448c-1.947,0-3.236-1.415-3.236-3.446c0-2.129,1.457-3.586,3.474-3.586    c0.826,0,1.499,0.238,1.765,0.42l-0.238,0.546c-0.336-0.182-0.854-0.392-1.597-0.392c-1.807,0-2.731,1.387-2.731,2.969    c0,1.751,1.106,2.9,2.662,2.9c0.798,0,1.316-0.224,1.681-0.378L141.611,28.224z"/>
		<path d="M144.297,20.31v1.485h1.919v0.532h-1.919v4.371c0,0.854,0.266,1.4,0.98,1.4c0.35,0,0.603-0.056,0.771-0.112l0.084,0.518    c-0.224,0.098-0.532,0.168-0.938,0.168c-0.49,0-0.896-0.168-1.148-0.491c-0.308-0.35-0.42-0.91-0.42-1.597v-4.258h-1.135v-0.532    h1.135v-1.233L144.297,20.31z"/>
		<path d="M147.713,25.086c0,2.157,1.176,2.998,2.563,2.998c0.98,0,1.485-0.196,1.863-0.378l0.168,0.532    c-0.252,0.14-0.938,0.435-2.115,0.435c-1.933,0-3.138-1.415-3.138-3.39c0-2.241,1.289-3.642,3.026-3.642    c2.199,0,2.619,2.073,2.619,3.04c0,0.182,0,0.294-0.028,0.406H147.713z M151.999,24.554c0.014-0.938-0.378-2.367-2.003-2.367    c-1.485,0-2.129,1.331-2.241,2.367H151.999z"/>
		<path d="M154.405,23.812c0-0.672-0.028-1.373-0.056-2.017h0.616l0.028,1.359h0.028c0.294-0.841,0.995-1.513,1.919-1.513    c0.084,0,0.182,0.014,0.266,0.028v0.644c-0.098-0.028-0.196-0.028-0.322-0.028c-0.924,0-1.583,0.798-1.765,1.877    c-0.028,0.196-0.056,0.42-0.056,0.645v3.712h-0.658V23.812z"/>
		<path d="M164.024,18.755c-1.163,1.443-1.975,3.222-1.975,5.785c0,2.521,0.854,4.244,1.975,5.701h-0.63    c-0.98-1.205-1.975-2.956-1.975-5.715c0-2.773,0.995-4.539,1.975-5.771H164.024z"/>
		<path d="M169.891,28.224c-0.294,0.154-0.995,0.448-1.961,0.448c-1.947,0-3.236-1.415-3.236-3.446c0-2.129,1.457-3.586,3.474-3.586    c0.826,0,1.499,0.238,1.765,0.42l-0.238,0.546c-0.336-0.182-0.854-0.392-1.597-0.392c-1.807,0-2.731,1.387-2.731,2.969    c0,1.751,1.106,2.9,2.662,2.9c0.798,0,1.316-0.224,1.681-0.378L169.891,28.224z"/>
		<path d="M175.673,26.921c0,0.532,0.028,1.079,0.098,1.597h-0.602l-0.098-0.966h-0.042c-0.322,0.518-1.064,1.121-2.143,1.121    c-1.345,0-1.975-0.953-1.975-1.849c0-1.555,1.373-2.494,4.104-2.465V24.19c0-0.672-0.126-2.003-1.723-1.989    c-0.588,0-1.205,0.154-1.681,0.504l-0.21-0.49c0.602-0.406,1.359-0.575,1.961-0.575c1.947,0,2.312,1.457,2.312,2.662V26.921z     M175.014,24.918c-1.471-0.042-3.404,0.182-3.404,1.793c0,0.967,0.645,1.401,1.345,1.401c1.121,0,1.751-0.687,1.989-1.345    c0.042-0.14,0.07-0.28,0.07-0.406V24.918z"/>
		<path d="M177.854,23.938c0-0.84-0.028-1.513-0.056-2.143h0.63l0.056,1.275h0.028c0.476-0.896,1.303-1.429,2.479-1.429    c1.723,0,2.885,1.429,2.885,3.404c0,2.41-1.429,3.628-3.054,3.628c-0.966,0-1.821-0.435-2.283-1.247h-0.028v3.866h-0.658V23.938z     M178.513,25.871c0,0.182,0.028,0.364,0.056,0.532c0.28,1.037,1.176,1.709,2.213,1.709c1.541,0,2.423-1.247,2.423-3.04    c0-1.513-0.84-2.886-2.367-2.886c-0.98,0-1.933,0.687-2.227,1.793c-0.042,0.182-0.098,0.393-0.098,0.574V25.871z"/>
		<path d="M184.602,30.241c1.121-1.429,1.975-3.208,1.975-5.757c0-2.535-0.827-4.272-1.975-5.729h0.63    c0.98,1.205,1.989,2.97,1.989,5.743c0,2.759-1.008,4.51-1.989,5.743H184.602z"/>
	</g>
	<g>
		<g>
			
				<line fill="none" stroke="#000000" stroke-width="1.5" stroke-miterlimit="10" x1="132.954" y1="29.778" x2="124.935" y2="58.292"/>
			<g>
				<path d="M123.954,61.778c-0.147-1.812-0.613-4.139-1.358-5.709l2.467,1.766l3.026-0.221      C126.634,58.566,125.023,60.309,123.954,61.778z"/>
			</g>
		</g>
	</g>
	<g>
		<g>
			
				<line fill="none" stroke="#000000" stroke-width="1.5" stroke-miterlimit="10" x1="94.454" y1="83.899" x2="94.454" y2="111.938"/>
			<g>
				<path d="M94.454,80.278c-0.632,1.704-1.711,3.818-2.854,5.128l2.854-1.032l2.853,1.032      C96.165,84.096,95.086,81.982,94.454,80.278z"/>
			</g>
			<g>
				<path d="M94.454,115.559c-0.632-1.704-1.711-3.818-2.854-5.128l2.854,1.032l2.853-1.032      C96.165,111.741,95.086,113.855,94.454,115.559z"/>
			</g>
		</g>
	</g>
	<g>
		<path d="M44.639,93.555l1.148,1.639c0.294,0.393,0.518,0.743,0.771,1.149h0.028c0.266-0.406,0.519-0.771,0.785-1.149l1.148-1.639    h0.742l-2.339,3.278l2.423,3.446h-0.757l-1.205-1.709c-0.294-0.42-0.56-0.826-0.84-1.261h-0.028    c-0.252,0.435-0.519,0.813-0.841,1.261l-1.176,1.709h-0.756l2.465-3.432l-2.326-3.292H44.639z"/>
		<path d="M53.236,96.132v0.588h-3.333v-0.588H53.236z"/>
		<path d="M54.789,90.333h0.658v4.426h0.028c0.196-0.378,0.519-0.742,0.925-0.98c0.378-0.238,0.84-0.378,1.358-0.378    c0.63,0,2.326,0.322,2.326,2.816v4.062h-0.659V96.3c0-1.219-0.476-2.325-1.849-2.325c-0.952,0-1.75,0.686-2.031,1.527    c-0.07,0.196-0.098,0.392-0.098,0.658v4.118h-0.658V90.333z"/>
		<path d="M62.391,96.847c0,2.157,1.177,2.998,2.563,2.998c0.98,0,1.485-0.196,1.863-0.378l0.168,0.532    c-0.252,0.14-0.938,0.435-2.115,0.435c-1.933,0-3.138-1.415-3.138-3.39c0-2.241,1.289-3.642,3.026-3.642    c2.199,0,2.619,2.073,2.619,3.04c0,0.182,0,0.294-0.028,0.406H62.391z M66.677,96.314c0.014-0.938-0.378-2.367-2.003-2.367    c-1.485,0-2.129,1.331-2.241,2.367H66.677z"/>
		<path d="M69.951,91.636c0,0.308-0.21,0.574-0.56,0.574c-0.308,0-0.519-0.266-0.519-0.574s0.238-0.588,0.546-0.588    C69.741,91.047,69.951,91.313,69.951,91.636z M69.083,100.278v-6.724h0.658v6.724H69.083z"/>
		<path d="M77.359,99.298c0,1.723-0.35,2.577-0.91,3.109c-0.617,0.588-1.527,0.799-2.283,0.799c-0.771,0-1.625-0.196-2.129-0.574    l0.238-0.533c0.462,0.294,1.121,0.561,1.989,0.561c1.415,0,2.438-0.743,2.438-2.731v-0.953h-0.028    c-0.351,0.687-1.135,1.303-2.339,1.303c-1.695,0-2.886-1.471-2.886-3.306c0-2.339,1.541-3.572,3.026-3.572    c1.331,0,1.989,0.729,2.269,1.289h0.028l0.028-1.135h0.616c-0.028,0.504-0.056,1.037-0.056,1.737V99.298z M76.701,96.132    c0-0.238-0.028-0.448-0.084-0.644c-0.28-0.813-0.995-1.541-2.087-1.541c-1.429,0-2.409,1.177-2.409,2.956    c0,1.513,0.798,2.815,2.381,2.815c0.896,0,1.737-0.546,2.073-1.513c0.084-0.224,0.126-0.476,0.126-0.714V96.132z"/>
		<path d="M79.624,90.333h0.658v4.426h0.028c0.196-0.378,0.519-0.742,0.925-0.98c0.378-0.238,0.84-0.378,1.358-0.378    c0.63,0,2.326,0.322,2.326,2.816v4.062H84.26V96.3c0-1.219-0.476-2.325-1.849-2.325c-0.952,0-1.75,0.686-2.031,1.527    c-0.07,0.196-0.098,0.392-0.098,0.658v4.118h-0.658V90.333z"/>
		<path d="M88.052,92.07v1.485h1.919v0.532h-1.919v4.371c0,0.854,0.266,1.4,0.98,1.4c0.35,0,0.603-0.056,0.771-0.112l0.084,0.518    c-0.224,0.098-0.532,0.168-0.938,0.168c-0.49,0-0.896-0.168-1.148-0.49c-0.308-0.351-0.42-0.911-0.42-1.597v-4.258h-1.135v-0.532    h1.135v-1.232L88.052,92.07z"/>
	</g>
	<g>
		<path d="M36.806,109.333h0.658v4.468h0.028c0.448-0.868,1.275-1.401,2.465-1.401c1.695,0,2.872,1.415,2.872,3.446    c0,2.395-1.527,3.586-2.998,3.586c-1.079,0-1.877-0.435-2.409-1.373h-0.028l-0.042,1.219H36.75    c0.028-0.476,0.056-1.064,0.056-1.569V109.333z M37.464,116.687c0,0.154,0.028,0.322,0.056,0.49    c0.294,1.022,1.163,1.695,2.213,1.695c1.541,0,2.423-1.261,2.423-3.012c0-1.541-0.84-2.914-2.367-2.914    c-0.98,0-1.919,0.687-2.241,1.807c-0.042,0.168-0.084,0.35-0.084,0.588V116.687z"/>
		<path d="M48.708,117.682c0,0.532,0.028,1.079,0.098,1.597h-0.602l-0.098-0.966h-0.042c-0.322,0.518-1.064,1.121-2.143,1.121    c-1.345,0-1.975-0.953-1.975-1.849c0-1.555,1.373-2.494,4.104-2.465v-0.168c0-0.672-0.126-2.003-1.723-1.989    c-0.588,0-1.205,0.154-1.681,0.504l-0.21-0.49c0.602-0.406,1.359-0.575,1.961-0.575c1.947,0,2.312,1.457,2.312,2.662V117.682z     M48.05,115.678c-1.471-0.042-3.404,0.182-3.404,1.793c0,0.967,0.645,1.401,1.345,1.401c1.121,0,1.751-0.687,1.989-1.345    c0.042-0.14,0.07-0.28,0.07-0.406V115.678z"/>
		<path d="M50.61,118.396c0.364,0.224,0.911,0.462,1.513,0.462c1.064,0,1.569-0.574,1.569-1.274c0-0.743-0.448-1.135-1.415-1.527    c-1.107-0.42-1.709-1.022-1.709-1.835c0-0.967,0.756-1.821,2.073-1.821c0.616,0,1.134,0.182,1.485,0.42l-0.267,0.546    c-0.224-0.168-0.658-0.406-1.331-0.406c-0.854,0-1.303,0.546-1.303,1.163c0,0.7,0.477,1.008,1.387,1.387    c1.093,0.42,1.737,0.966,1.737,1.989c0,1.148-0.896,1.933-2.269,1.933c-0.658,0-1.261-0.196-1.709-0.477L50.61,118.396z"/>
		<path d="M56.21,115.847c0,2.157,1.176,2.998,2.563,2.998c0.98,0,1.485-0.196,1.863-0.378l0.168,0.532    c-0.252,0.14-0.938,0.435-2.115,0.435c-1.933,0-3.138-1.415-3.138-3.39c0-2.241,1.289-3.642,3.026-3.642    c2.199,0,2.619,2.073,2.619,3.04c0,0.182,0,0.294-0.028,0.406H56.21z M60.496,115.314c0.014-0.938-0.378-2.367-2.003-2.367    c-1.485,0-2.129,1.331-2.241,2.367H60.496z"/>
		<path d="M62.901,109.333h0.658v9.945h-0.658V109.333z"/>
		<path d="M66.737,110.636c0,0.308-0.21,0.574-0.56,0.574c-0.308,0-0.519-0.266-0.519-0.574s0.238-0.588,0.546-0.588    C66.527,110.047,66.737,110.313,66.737,110.636z M65.869,119.278v-6.724h0.658v6.724H65.869z"/>
		<path d="M68.795,114.166c0-0.616-0.028-1.079-0.056-1.611h0.616l0.056,1.219h0.028c0.364-0.756,1.205-1.373,2.312-1.373    c0.644,0,2.339,0.322,2.339,2.844v4.034h-0.659V115.3c0-1.219-0.476-2.325-1.863-2.325c-0.953,0-1.751,0.672-2.017,1.541    c-0.056,0.168-0.098,0.393-0.098,0.603v4.16h-0.658V114.166z"/>
		<path d="M76.396,115.847c0,2.157,1.177,2.998,2.563,2.998c0.98,0,1.485-0.196,1.863-0.378l0.168,0.532    c-0.252,0.14-0.938,0.435-2.115,0.435c-1.933,0-3.138-1.415-3.138-3.39c0-2.241,1.289-3.642,3.026-3.642    c2.199,0,2.619,2.073,2.619,3.04c0,0.182,0,0.294-0.028,0.406H76.396z M80.683,115.314c0.014-0.938-0.378-2.367-2.003-2.367    c-1.485,0-2.129,1.331-2.241,2.367H80.683z"/>
	</g>
	<g>
		<path d="M6.485,127.973v8.376c0,0.504,0.028,1.093,0.056,1.569H5.938l-0.042-1.275H5.869c-0.35,0.743-1.148,1.429-2.395,1.429    c-1.653,0-2.9-1.387-2.9-3.39c-0.014-2.241,1.373-3.642,3.026-3.642c1.163,0,1.891,0.603,2.199,1.177h0.028v-4.244H6.485z     M5.827,133.856c0-0.182-0.028-0.435-0.07-0.617c-0.238-0.896-1.023-1.653-2.115-1.653c-1.471,0-2.396,1.275-2.396,3.026    c0,1.513,0.756,2.899,2.354,2.899c0.966,0,1.863-0.63,2.157-1.751c0.042-0.182,0.07-0.35,0.07-0.56V133.856z"/>
		<path d="M8.848,134.486c0,2.157,1.177,2.997,2.563,2.997c0.98,0,1.485-0.195,1.863-0.378l0.168,0.532    c-0.252,0.141-0.938,0.435-2.115,0.435c-1.933,0-3.138-1.415-3.138-3.39c0-2.241,1.289-3.642,3.026-3.642    c2.199,0,2.619,2.073,2.619,3.04c0,0.182,0,0.294-0.028,0.406H8.848z M13.134,133.954c0.014-0.938-0.378-2.367-2.003-2.367    c-1.485,0-2.129,1.331-2.241,2.367H13.134z"/>
		<path d="M15.26,137.036c0.364,0.224,0.911,0.461,1.513,0.461c1.064,0,1.569-0.574,1.569-1.274c0-0.743-0.448-1.135-1.415-1.527    c-1.107-0.42-1.709-1.022-1.709-1.835c0-0.967,0.756-1.821,2.073-1.821c0.616,0,1.134,0.182,1.484,0.42l-0.266,0.546    c-0.224-0.168-0.658-0.406-1.331-0.406c-0.854,0-1.303,0.546-1.303,1.163c0,0.7,0.477,1.008,1.387,1.387    c1.093,0.42,1.737,0.966,1.737,1.989c0,1.149-0.896,1.933-2.27,1.933c-0.658,0-1.261-0.196-1.709-0.477L15.26,137.036z"/>
		<path d="M25.398,137.624c-0.294,0.154-0.995,0.448-1.961,0.448c-1.947,0-3.236-1.415-3.236-3.446c0-2.129,1.457-3.586,3.474-3.586    c0.826,0,1.499,0.238,1.765,0.42l-0.238,0.546c-0.336-0.182-0.854-0.392-1.597-0.392c-1.807,0-2.731,1.387-2.731,2.969    c0,1.751,1.107,2.899,2.662,2.899c0.798,0,1.316-0.224,1.681-0.378L25.398,137.624z"/>
		<path d="M27.104,134.486c0,2.157,1.177,2.997,2.563,2.997c0.98,0,1.485-0.195,1.863-0.378l0.168,0.532    c-0.252,0.141-0.938,0.435-2.115,0.435c-1.933,0-3.138-1.415-3.138-3.39c0-2.241,1.289-3.642,3.026-3.642    c2.199,0,2.619,2.073,2.619,3.04c0,0.182,0,0.294-0.028,0.406H27.104z M31.39,133.954c0.014-0.938-0.378-2.367-2.003-2.367    c-1.485,0-2.129,1.331-2.241,2.367H31.39z"/>
		<path d="M33.796,132.805c0-0.616-0.028-1.079-0.056-1.611h0.616l0.056,1.219h0.028c0.364-0.756,1.205-1.373,2.312-1.373    c0.644,0,2.339,0.322,2.339,2.844v4.034h-0.659v-3.978c0-1.219-0.476-2.325-1.863-2.325c-0.953,0-1.751,0.672-2.017,1.541    c-0.056,0.168-0.098,0.393-0.098,0.603v4.16h-0.658V132.805z"/>
		<path d="M46.65,127.973v8.376c0,0.504,0.028,1.093,0.056,1.569h-0.602l-0.042-1.275h-0.028c-0.35,0.743-1.148,1.429-2.396,1.429    c-1.653,0-2.899-1.387-2.899-3.39c-0.014-2.241,1.373-3.642,3.026-3.642c1.163,0,1.891,0.603,2.199,1.177h0.028v-4.244H46.65z     M45.992,133.856c0-0.182-0.028-0.435-0.07-0.617c-0.238-0.896-1.023-1.653-2.115-1.653c-1.471,0-2.396,1.275-2.396,3.026    c0,1.513,0.756,2.899,2.354,2.899c0.966,0,1.863-0.63,2.157-1.751c0.042-0.182,0.07-0.35,0.07-0.56V133.856z"/>
		<path d="M49.014,134.486c0,2.157,1.176,2.997,2.563,2.997c0.98,0,1.485-0.195,1.863-0.378l0.168,0.532    c-0.252,0.141-0.938,0.435-2.115,0.435c-1.933,0-3.138-1.415-3.138-3.39c0-2.241,1.289-3.642,3.026-3.642    c2.199,0,2.619,2.073,2.619,3.04c0,0.182,0,0.294-0.028,0.406H49.014z M53.3,133.954c0.014-0.938-0.378-2.367-2.003-2.367    c-1.485,0-2.129,1.331-2.241,2.367H53.3z"/>
		<path d="M55.705,133.211c0-0.672-0.028-1.373-0.056-2.017h0.616l0.028,1.359h0.028c0.294-0.841,0.995-1.513,1.919-1.513    c0.084,0,0.182,0.014,0.266,0.028v0.644c-0.098-0.028-0.196-0.028-0.322-0.028c-0.924,0-1.583,0.798-1.765,1.877    c-0.028,0.196-0.056,0.42-0.056,0.645v3.712h-0.658V133.211z"/>
		<path d="M62.901,127.973h0.658v9.945h-0.658V127.973z"/>
		<path d="M66.737,129.275c0,0.308-0.21,0.574-0.56,0.574c-0.308,0-0.519-0.266-0.519-0.574s0.238-0.588,0.546-0.588    C66.527,128.687,66.737,128.953,66.737,129.275z M65.869,137.918v-6.724h0.658v6.724H65.869z"/>
		<path d="M68.794,132.805c0-0.616-0.028-1.079-0.056-1.611h0.616l0.056,1.219h0.028c0.364-0.756,1.205-1.373,2.312-1.373    c0.644,0,2.339,0.322,2.339,2.844v4.034h-0.659v-3.978c0-1.219-0.476-2.325-1.863-2.325c-0.953,0-1.751,0.672-2.017,1.541    c-0.056,0.168-0.098,0.393-0.098,0.603v4.16h-0.658V132.805z"/>
		<path d="M76.396,134.486c0,2.157,1.176,2.997,2.563,2.997c0.98,0,1.485-0.195,1.863-0.378l0.168,0.532    c-0.252,0.141-0.938,0.435-2.115,0.435c-1.933,0-3.138-1.415-3.138-3.39c0-2.241,1.289-3.642,3.026-3.642    c2.199,0,2.619,2.073,2.619,3.04c0,0.182,0,0.294-0.028,0.406H76.396z M80.683,133.954c0.014-0.938-0.378-2.367-2.003-2.367    c-1.485,0-2.129,1.331-2.241,2.367H80.683z"/>
	</g>
	<g>
		<path d="M13.358,60.182c0,0.532,0.028,1.079,0.098,1.597h-0.602l-0.098-0.966h-0.042c-0.322,0.518-1.064,1.121-2.143,1.121    c-1.345,0-1.975-0.953-1.975-1.849c0-1.555,1.373-2.494,4.104-2.465V57.45c0-0.672-0.126-2.003-1.723-1.989    c-0.588,0-1.205,0.154-1.681,0.504l-0.21-0.49c0.602-0.406,1.359-0.575,1.961-0.575c1.947,0,2.312,1.457,2.312,2.662V60.182z     M12.7,58.178c-1.471-0.042-3.404,0.182-3.404,1.793c0,0.967,0.645,1.401,1.345,1.401c1.121,0,1.751-0.687,1.989-1.345    c0.042-0.14,0.07-0.28,0.07-0.406V58.178z"/>
		<path d="M15.26,60.896c0.364,0.224,0.911,0.462,1.513,0.462c1.064,0,1.569-0.574,1.569-1.274c0-0.743-0.448-1.135-1.415-1.527    c-1.107-0.42-1.709-1.022-1.709-1.835c0-0.967,0.756-1.821,2.073-1.821c0.616,0,1.134,0.182,1.484,0.42l-0.266,0.546    c-0.224-0.168-0.658-0.406-1.331-0.406c-0.854,0-1.303,0.546-1.303,1.163c0,0.7,0.477,1.008,1.387,1.387    C18.355,58.431,19,58.977,19,60c0,1.148-0.896,1.933-2.27,1.933c-0.658,0-1.261-0.196-1.709-0.477L15.26,60.896z"/>
		<path d="M25.398,61.484c-0.294,0.154-0.995,0.448-1.961,0.448c-1.947,0-3.236-1.415-3.236-3.446c0-2.129,1.457-3.586,3.474-3.586    c0.826,0,1.499,0.238,1.765,0.42l-0.238,0.546c-0.336-0.182-0.854-0.392-1.597-0.392c-1.807,0-2.731,1.387-2.731,2.969    c0,1.751,1.107,2.9,2.662,2.9c0.798,0,1.316-0.224,1.681-0.378L25.398,61.484z"/>
		<path d="M27.104,58.347c0,2.157,1.177,2.998,2.563,2.998c0.98,0,1.485-0.196,1.863-0.378l0.168,0.532    c-0.252,0.14-0.938,0.435-2.115,0.435c-1.933,0-3.138-1.415-3.138-3.39c0-2.241,1.289-3.642,3.026-3.642    c2.199,0,2.619,2.073,2.619,3.04c0,0.182,0,0.294-0.028,0.406H27.104z M31.39,57.814c0.014-0.938-0.378-2.367-2.003-2.367    c-1.485,0-2.129,1.331-2.241,2.367H31.39z"/>
		<path d="M33.796,56.666c0-0.616-0.028-1.079-0.056-1.611h0.616l0.056,1.219h0.028c0.364-0.756,1.205-1.373,2.312-1.373    c0.644,0,2.339,0.322,2.339,2.844v4.034h-0.659V57.8c0-1.219-0.476-2.325-1.863-2.325c-0.953,0-1.751,0.672-2.017,1.541    c-0.056,0.168-0.098,0.393-0.098,0.603v4.16h-0.658V56.666z"/>
		<path d="M46.65,51.833v8.376c0,0.504,0.028,1.093,0.056,1.569h-0.602l-0.042-1.275h-0.028c-0.35,0.743-1.148,1.429-2.396,1.429    c-1.653,0-2.899-1.387-2.899-3.39c-0.014-2.241,1.373-3.642,3.026-3.642c1.163,0,1.891,0.603,2.199,1.177h0.028v-4.244H46.65z     M45.992,57.716c0-0.182-0.028-0.435-0.07-0.617c-0.238-0.896-1.023-1.653-2.115-1.653c-1.471,0-2.396,1.275-2.396,3.026    c0,1.513,0.756,2.899,2.354,2.899c0.966,0,1.863-0.63,2.157-1.751c0.042-0.182,0.07-0.35,0.07-0.56V57.716z"/>
		<path d="M49.014,58.347c0,2.157,1.176,2.998,2.563,2.998c0.98,0,1.485-0.196,1.863-0.378l0.168,0.532    c-0.252,0.14-0.938,0.435-2.115,0.435c-1.933,0-3.138-1.415-3.138-3.39c0-2.241,1.289-3.642,3.026-3.642    C53.58,54.9,54,56.974,54,57.94c0,0.182,0,0.294-0.028,0.406H49.014z M53.3,57.814c0.014-0.938-0.378-2.367-2.003-2.367    c-1.485,0-2.129,1.331-2.241,2.367H53.3z"/>
		<path d="M55.705,57.072c0-0.672-0.028-1.373-0.056-2.017h0.616l0.028,1.359h0.028c0.294-0.841,0.995-1.513,1.919-1.513    c0.084,0,0.182,0.014,0.266,0.028v0.644c-0.098-0.028-0.196-0.028-0.322-0.028c-0.924,0-1.583,0.798-1.765,1.877    c-0.028,0.196-0.056,0.42-0.056,0.645v3.712h-0.658V57.072z"/>
		<path d="M62.901,51.833h0.658v9.945h-0.658V51.833z"/>
		<path d="M66.737,53.136c0,0.308-0.21,0.574-0.56,0.574c-0.308,0-0.519-0.266-0.519-0.574s0.238-0.588,0.546-0.588    C66.527,52.547,66.737,52.813,66.737,53.136z M65.869,61.778v-6.724h0.658v6.724H65.869z"/>
		<path d="M68.794,56.666c0-0.616-0.028-1.079-0.056-1.611h0.616l0.056,1.219h0.028c0.364-0.756,1.205-1.373,2.312-1.373    c0.644,0,2.339,0.322,2.339,2.844v4.034h-0.659V57.8c0-1.219-0.476-2.325-1.863-2.325c-0.953,0-1.751,0.672-2.017,1.541    c-0.056,0.168-0.098,0.393-0.098,0.603v4.16h-0.658V56.666z"/>
		<path d="M76.396,58.347c0,2.157,1.176,2.998,2.563,2.998c0.98,0,1.485-0.196,1.863-0.378l0.168,0.532    c-0.252,0.14-0.938,0.435-2.115,0.435c-1.933,0-3.138-1.415-3.138-3.39c0-2.241,1.289-3.642,3.026-3.642    c2.199,0,2.619,2.073,2.619,3.04c0,0.182,0,0.294-0.028,0.406H76.396z M80.683,57.814c0.014-0.938-0.378-2.367-2.003-2.367    c-1.485,0-2.129,1.331-2.241,2.367H80.683z"/>
	</g>
	<g>
		<path fill="#D34F1D" d="M100.283,48.272h0.658v4.468h0.028c0.448-0.868,1.275-1.401,2.465-1.401c1.695,0,2.872,1.415,2.872,3.446    c0,2.395-1.527,3.586-2.998,3.586c-1.079,0-1.877-0.435-2.409-1.373h-0.028l-0.042,1.219h-0.602    c0.028-0.476,0.056-1.064,0.056-1.569V48.272z M100.941,55.626c0,0.154,0.028,0.322,0.056,0.49    c0.294,1.022,1.163,1.695,2.213,1.695c1.541,0,2.423-1.261,2.423-3.012c0-1.541-0.84-2.914-2.367-2.914    c-0.98,0-1.919,0.687-2.241,1.807c-0.042,0.168-0.084,0.35-0.084,0.588V55.626z"/>
		<path fill="#D34F1D" d="M112.185,56.621c0,0.532,0.028,1.079,0.098,1.597h-0.602l-0.098-0.966h-0.042    c-0.322,0.518-1.064,1.121-2.143,1.121c-1.345,0-1.975-0.953-1.975-1.849c0-1.555,1.373-2.494,4.104-2.465V53.89    c0-0.672-0.126-2.003-1.723-1.989c-0.588,0-1.205,0.154-1.681,0.504l-0.21-0.49c0.602-0.406,1.359-0.575,1.961-0.575    c1.947,0,2.312,1.457,2.312,2.662V56.621z M111.526,54.618c-1.471-0.042-3.404,0.182-3.404,1.793c0,0.967,0.645,1.401,1.345,1.401    c1.121,0,1.751-0.687,1.989-1.345c0.042-0.14,0.07-0.28,0.07-0.406V54.618z"/>
		<path fill="#D34F1D" d="M114.367,53.511c0-0.672-0.028-1.373-0.056-2.017h0.616l0.028,1.359h0.028    c0.294-0.841,0.995-1.513,1.919-1.513c0.084,0,0.182,0.014,0.266,0.028v0.644c-0.098-0.028-0.196-0.028-0.322-0.028    c-0.924,0-1.583,0.798-1.765,1.877c-0.028,0.196-0.056,0.42-0.056,0.645v3.712h-0.658V53.511z"/>
	</g>
	<g>
		<path fill="#D34F1D" d="M109.309,139.319v1.485h1.919v0.532h-1.919v4.371c0,0.854,0.266,1.4,0.98,1.4    c0.35,0,0.603-0.057,0.771-0.112l0.084,0.519c-0.224,0.098-0.532,0.168-0.938,0.168c-0.49,0-0.896-0.168-1.148-0.49    c-0.308-0.351-0.42-0.91-0.42-1.598v-4.258h-1.135v-0.532h1.135v-1.232L109.309,139.319z"/>
		<path fill="#D34F1D" d="M112.724,144.097c0,2.156,1.177,2.998,2.563,2.998c0.98,0,1.485-0.197,1.863-0.379l0.168,0.532    c-0.252,0.14-0.938,0.435-2.115,0.435c-1.933,0-3.138-1.415-3.138-3.391c0-2.24,1.289-3.642,3.026-3.642    c2.199,0,2.619,2.073,2.619,3.04c0,0.182,0,0.294-0.028,0.406H112.724z M117.011,143.563c0.014-0.938-0.378-2.367-2.003-2.367    c-1.485,0-2.129,1.332-2.241,2.367H117.011z"/>
		<path fill="#D34F1D" d="M119.417,142.821c0-0.672-0.028-1.372-0.056-2.017h0.616l0.028,1.358h0.028    c0.294-0.84,0.995-1.513,1.919-1.513c0.084,0,0.182,0.015,0.266,0.028v0.645c-0.098-0.028-0.196-0.028-0.322-0.028    c-0.924,0-1.583,0.798-1.765,1.877c-0.028,0.196-0.056,0.421-0.056,0.645v3.712h-0.658V142.821z"/>
		<path fill="#D34F1D" d="M123.644,142.415c0-0.615-0.028-1.078-0.056-1.61h0.616l0.056,1.19h0.028    c0.42-0.77,1.065-1.345,2.171-1.345c0.938,0,1.653,0.616,1.933,1.472h0.028c0.196-0.406,0.434-0.701,0.687-0.911    c0.434-0.364,0.896-0.561,1.611-0.561c0.658,0,2.185,0.364,2.185,2.913v3.965h-0.658v-3.895c0-1.512-0.588-2.408-1.751-2.408    c-0.84,0-1.513,0.615-1.765,1.33c-0.07,0.196-0.126,0.42-0.126,0.658v4.314h-0.658v-4.202c0-1.219-0.588-2.101-1.667-2.101    c-0.911,0-1.611,0.728-1.863,1.512c-0.07,0.183-0.112,0.421-0.112,0.645v4.146h-0.658V142.415z"/>
		<path fill="#D34F1D" d="M135.978,138.886c0,0.309-0.21,0.574-0.56,0.574c-0.308,0-0.519-0.266-0.519-0.574    s0.238-0.588,0.546-0.588C135.768,138.298,135.978,138.563,135.978,138.886z M135.11,147.528v-6.724h0.658v6.724H135.11z"/>
		<path fill="#D34F1D" d="M138.036,142.415c0-0.615-0.028-1.078-0.056-1.61h0.616l0.056,1.219h0.028    c0.364-0.757,1.205-1.373,2.312-1.373c0.644,0,2.339,0.322,2.339,2.844v4.034h-0.659v-3.979c0-1.219-0.476-2.324-1.863-2.324    c-0.953,0-1.751,0.672-2.017,1.54c-0.056,0.168-0.098,0.393-0.098,0.603v4.16h-0.658V142.415z"/>
		<path fill="#D34F1D" d="M149.714,145.932c0,0.532,0.028,1.079,0.098,1.597h-0.602l-0.098-0.967h-0.042    c-0.322,0.519-1.064,1.121-2.143,1.121c-1.345,0-1.975-0.953-1.975-1.85c0-1.555,1.373-2.493,4.104-2.465V143.2    c0-0.672-0.126-2.004-1.723-1.989c-0.588,0-1.205,0.154-1.681,0.505l-0.21-0.49c0.602-0.406,1.359-0.575,1.961-0.575    c1.947,0,2.312,1.457,2.312,2.661V145.932z M149.055,143.929c-1.471-0.043-3.404,0.182-3.404,1.793c0,0.967,0.645,1.4,1.345,1.4    c1.121,0,1.751-0.687,1.989-1.345c0.042-0.14,0.07-0.28,0.07-0.406V143.929z"/>
		<path fill="#D34F1D" d="M151.896,137.583h0.658v9.945h-0.658V137.583z"/>
	</g>
	<g>
		<path fill="#D34F1D" d="M172.476,148.034c0.364,0.224,0.911,0.461,1.513,0.461c1.064,0,1.569-0.574,1.569-1.273    c0-0.743-0.448-1.135-1.415-1.527c-1.107-0.42-1.709-1.022-1.709-1.835c0-0.967,0.756-1.821,2.073-1.821    c0.616,0,1.134,0.182,1.485,0.42l-0.267,0.547c-0.224-0.168-0.658-0.406-1.331-0.406c-0.854,0-1.303,0.547-1.303,1.162    c0,0.701,0.477,1.009,1.387,1.387c1.093,0.421,1.737,0.967,1.737,1.99c0,1.148-0.896,1.933-2.269,1.933    c-0.658,0-1.261-0.196-1.709-0.477L172.476,148.034z"/>
		<path fill="#D34F1D" d="M178.076,145.484c0,2.157,1.176,2.997,2.563,2.997c0.98,0,1.485-0.195,1.863-0.378l0.168,0.532    c-0.252,0.141-0.938,0.435-2.115,0.435c-1.933,0-3.138-1.415-3.138-3.39c0-2.242,1.289-3.643,3.026-3.643    c2.199,0,2.619,2.073,2.619,3.04c0,0.183,0,0.294-0.028,0.406H178.076z M182.362,144.952c0.014-0.939-0.378-2.367-2.003-2.367    c-1.485,0-2.129,1.33-2.241,2.367H182.362z"/>
		<path fill="#D34F1D" d="M184.767,144.21c0-0.673-0.028-1.373-0.056-2.018h0.616l0.028,1.359h0.028    c0.294-0.842,0.995-1.514,1.919-1.514c0.084,0,0.182,0.014,0.266,0.028v0.644c-0.098-0.027-0.196-0.027-0.322-0.027    c-0.924,0-1.583,0.799-1.765,1.877c-0.028,0.196-0.056,0.42-0.056,0.645v3.712h-0.658V144.21z"/>
		<path fill="#D34F1D" d="M189.863,140.273c0,0.308-0.21,0.574-0.56,0.574c-0.308,0-0.519-0.267-0.519-0.574    s0.238-0.589,0.546-0.589C189.653,139.685,189.863,139.951,189.863,140.273z M188.995,148.916v-6.724h0.658v6.724H188.995z"/>
		<path fill="#D34F1D" d="M191.962,148.916v-6.191h-0.967v-0.532h0.967v-0.364c0-1.036,0.196-1.877,0.742-2.423    c0.406-0.406,0.967-0.589,1.485-0.589c0.434,0,0.813,0.112,1.009,0.224l-0.21,0.533c-0.182-0.098-0.448-0.196-0.854-0.196    c-1.247,0-1.513,1.148-1.513,2.437v0.379h1.807v0.532h-1.807v6.191H191.962z"/>
	</g>
	<path fill="#D34F1D" d="M174.548,132.714v2.174h19.006v-2.174c-4.701-0.367-6.16-0.739-6.592-3.561h-6.667   C179.931,131.938,178.631,132.33,174.548,132.714z"/>
	<g>
		<path fill="#D34F1D" d="M217.663,127.725c-0.294,0.154-0.995,0.448-1.961,0.448c-1.947,0-3.236-1.415-3.236-3.446    c0-2.129,1.457-3.586,3.474-3.586c0.826,0,1.499,0.238,1.765,0.42l-0.238,0.546c-0.336-0.182-0.854-0.392-1.597-0.392    c-1.807,0-2.731,1.387-2.731,2.969c0,1.751,1.107,2.9,2.662,2.9c0.798,0,1.316-0.224,1.681-0.378L217.663,127.725z"/>
		<path fill="#D34F1D" d="M225.014,124.587c0,2.521-1.723,3.586-3.222,3.586c-1.737,0-3.082-1.359-3.082-3.46    c0-2.312,1.513-3.572,3.18-3.572C223.753,121.141,225.014,122.527,225.014,124.587z M219.383,124.671    c0,1.681,1.079,2.941,2.452,2.941c1.4,0,2.507-1.261,2.507-2.983c0-1.233-0.701-2.942-2.465-2.942    C220.167,121.687,219.383,123.228,219.383,124.671z"/>
		<path fill="#D34F1D" d="M231.887,126.38c0,0.588,0.028,1.121,0.056,1.639h-0.616l-0.042-1.19h-0.028    c-0.336,0.616-1.106,1.345-2.311,1.345c-0.854,0-2.283-0.42-2.283-2.97v-3.908h0.658v3.782c0,1.457,0.462,2.507,1.793,2.507    c0.98,0,1.695-0.687,1.975-1.359c0.07-0.21,0.14-0.476,0.14-0.742v-4.188h0.658V126.38z"/>
		<path fill="#D34F1D" d="M234.153,122.906c0-0.616-0.028-1.079-0.056-1.611h0.616l0.056,1.219h0.028    c0.364-0.756,1.205-1.373,2.312-1.373c0.645,0,2.34,0.322,2.34,2.844v4.034h-0.659v-3.978c0-1.219-0.476-2.325-1.862-2.325    c-0.953,0-1.751,0.672-2.018,1.541c-0.056,0.168-0.098,0.393-0.098,0.603v4.16h-0.658V122.906z"/>
		<path fill="#D34F1D" d="M242.581,119.81v1.485h1.919v0.532h-1.919v4.371c0,0.854,0.266,1.4,0.98,1.4    c0.35,0,0.603-0.056,0.771-0.112l0.084,0.518c-0.224,0.098-0.532,0.168-0.938,0.168c-0.49,0-0.896-0.168-1.148-0.49    c-0.309-0.351-0.42-0.911-0.42-1.597v-4.258h-1.135v-0.532h1.135v-1.232L242.581,119.81z"/>
		<path fill="#D34F1D" d="M245.997,124.587c0,2.157,1.176,2.998,2.563,2.998c0.98,0,1.484-0.196,1.863-0.378l0.168,0.532    c-0.252,0.14-0.938,0.435-2.115,0.435c-1.934,0-3.138-1.415-3.138-3.39c0-2.241,1.288-3.642,3.026-3.642    c2.199,0,2.619,2.073,2.619,3.04c0,0.182,0,0.294-0.028,0.406H245.997z M250.282,124.054c0.015-0.938-0.378-2.367-2.002-2.367    c-1.485,0-2.13,1.331-2.242,2.367H250.282z"/>
		<path fill="#D34F1D" d="M252.688,123.312c0-0.672-0.029-1.373-0.057-2.017h0.616l0.028,1.359h0.027    c0.295-0.841,0.995-1.513,1.92-1.513c0.084,0,0.182,0.014,0.266,0.028v0.644c-0.098-0.028-0.195-0.028-0.322-0.028    c-0.924,0-1.582,0.798-1.765,1.877c-0.028,0.196-0.056,0.42-0.056,0.645v3.712h-0.658V123.312z"/>
	</g>
	<g>
		<path fill="#D34F1D" d="M265.534,138.971h0.658v9.945h-0.658V138.971z"/>
		<path fill="#D34F1D" d="M274.245,145.484c0,2.521-1.723,3.586-3.223,3.586c-1.736,0-3.081-1.358-3.081-3.46    c0-2.312,1.513-3.572,3.18-3.572C272.984,142.038,274.245,143.425,274.245,145.484z M268.614,145.568    c0,1.681,1.078,2.941,2.451,2.941c1.4,0,2.508-1.261,2.508-2.983c0-1.232-0.701-2.941-2.466-2.941    C269.398,142.585,268.614,144.126,268.614,145.568z"/>
		<path fill="#D34F1D" d="M281.692,145.484c0,2.521-1.723,3.586-3.222,3.586c-1.737,0-3.081-1.358-3.081-3.46    c0-2.312,1.512-3.572,3.18-3.572C280.433,142.038,281.692,143.425,281.692,145.484z M276.062,145.568    c0,1.681,1.078,2.941,2.451,2.941c1.4,0,2.508-1.261,2.508-2.983c0-1.232-0.701-2.941-2.465-2.941    C276.847,142.585,276.062,144.126,276.062,145.568z"/>
		<path fill="#D34F1D" d="M283.397,144.335c0-0.84-0.028-1.512-0.057-2.143h0.631l0.057,1.275h0.027    c0.477-0.896,1.303-1.43,2.479-1.43c1.723,0,2.886,1.43,2.886,3.404c0,2.409-1.43,3.628-3.055,3.628    c-0.966,0-1.82-0.435-2.283-1.247h-0.027v3.866h-0.658V144.335z M284.056,146.269c0,0.182,0.027,0.364,0.057,0.532    c0.279,1.036,1.176,1.709,2.213,1.709c1.541,0,2.423-1.247,2.423-3.04c0-1.512-0.841-2.885-2.367-2.885    c-0.98,0-1.933,0.686-2.228,1.793c-0.041,0.182-0.098,0.392-0.098,0.574V146.269z"/>
	</g>
	<g>
		<path d="M203.056,4.903h0.658v9.945h-0.658V4.903z"/>
		<path d="M211.767,11.417c0,2.521-1.723,3.586-3.222,3.586c-1.737,0-3.082-1.359-3.082-3.46c0-2.312,1.513-3.572,3.18-3.572    C210.506,7.97,211.767,9.357,211.767,11.417z M206.135,11.5c0,1.681,1.079,2.941,2.451,2.941c1.401,0,2.508-1.261,2.508-2.983    c0-1.233-0.701-2.942-2.465-2.942C206.92,8.517,206.135,10.058,206.135,11.5z"/>
		<path d="M213.275,8.125l1.121,3.824c0.238,0.784,0.434,1.457,0.574,2.101h0.042c0.168-0.616,0.392-1.331,0.672-2.101l1.345-3.824    h0.63l1.289,3.796c0.266,0.813,0.476,1.499,0.658,2.129h0.028c0.14-0.63,0.35-1.303,0.602-2.115l1.205-3.81h0.687l-2.241,6.724    h-0.588l-1.261-3.74c-0.294-0.812-0.518-1.541-0.7-2.297h-0.028c-0.196,0.798-0.448,1.541-0.728,2.311l-1.345,3.726h-0.588    l-2.059-6.724H213.275z"/>
		<path d="M223.509,11.417c0,2.157,1.177,2.998,2.563,2.998c0.98,0,1.485-0.196,1.863-0.378l0.168,0.532    c-0.252,0.14-0.938,0.435-2.115,0.435c-1.933,0-3.138-1.415-3.138-3.39c0-2.241,1.289-3.642,3.026-3.642    c2.199,0,2.619,2.073,2.619,3.04c0,0.182,0,0.294-0.028,0.406H223.509z M227.796,10.884c0.014-0.938-0.378-2.367-2.003-2.367    c-1.485,0-2.129,1.331-2.241,2.367H227.796z"/>
		<path d="M230.201,10.142c0-0.672-0.028-1.373-0.056-2.017h0.616l0.028,1.359h0.028c0.294-0.841,0.995-1.513,1.919-1.513    c0.084,0,0.182,0.014,0.266,0.028v0.644c-0.098-0.028-0.196-0.028-0.322-0.028c-0.924,0-1.583,0.798-1.765,1.877    c-0.028,0.196-0.056,0.42-0.056,0.645v3.712h-0.658V10.142z"/>
		<path d="M238.813,14.554c-0.294,0.154-0.994,0.448-1.961,0.448c-1.947,0-3.236-1.415-3.236-3.446c0-2.129,1.457-3.586,3.474-3.586    c0.826,0,1.498,0.238,1.765,0.42l-0.237,0.546c-0.337-0.182-0.855-0.392-1.598-0.392c-1.807,0-2.731,1.387-2.731,2.969    c0,1.751,1.107,2.9,2.661,2.9c0.799,0,1.316-0.224,1.682-0.378L238.813,14.554z"/>
		<path d="M244.596,13.251c0,0.532,0.028,1.079,0.098,1.597h-0.603l-0.098-0.966h-0.042c-0.322,0.518-1.064,1.121-2.144,1.121    c-1.344,0-1.975-0.953-1.975-1.849c0-1.555,1.373-2.494,4.104-2.465V10.52c0-0.672-0.125-2.003-1.723-1.989    c-0.588,0-1.204,0.154-1.681,0.504l-0.21-0.49c0.602-0.406,1.359-0.575,1.961-0.575c1.947,0,2.312,1.457,2.312,2.662V13.251z     M243.937,11.248c-1.471-0.042-3.403,0.182-3.403,1.793c0,0.967,0.645,1.401,1.345,1.401c1.121,0,1.751-0.687,1.989-1.345    c0.042-0.14,0.069-0.28,0.069-0.406V11.248z"/>
		<path d="M246.497,13.966c0.364,0.224,0.91,0.462,1.513,0.462c1.064,0,1.569-0.574,1.569-1.274c0-0.743-0.449-1.135-1.415-1.527    c-1.106-0.42-1.709-1.022-1.709-1.835c0-0.967,0.757-1.821,2.073-1.821c0.616,0,1.135,0.182,1.484,0.42l-0.266,0.546    c-0.225-0.168-0.658-0.406-1.331-0.406c-0.854,0-1.303,0.546-1.303,1.163c0,0.7,0.477,1.009,1.387,1.387    c1.093,0.42,1.737,0.967,1.737,1.989c0,1.148-0.896,1.933-2.27,1.933c-0.658,0-1.261-0.196-1.709-0.477L246.497,13.966z"/>
		<path d="M252.097,11.417c0,2.157,1.177,2.998,2.563,2.998c0.98,0,1.485-0.196,1.863-0.378l0.168,0.532    c-0.252,0.14-0.938,0.435-2.115,0.435c-1.933,0-3.138-1.415-3.138-3.39c0-2.241,1.289-3.642,3.025-3.642    c2.199,0,2.619,2.073,2.619,3.04c0,0.182,0,0.294-0.027,0.406H252.097z M256.384,10.884c0.014-0.938-0.379-2.367-2.004-2.367    c-1.484,0-2.129,1.331-2.24,2.367H256.384z"/>
		<path d="M209.484,31.354c-0.294,0.154-0.995,0.448-1.961,0.448c-1.947,0-3.236-1.415-3.236-3.446c0-2.129,1.457-3.586,3.474-3.586    c0.826,0,1.499,0.238,1.765,0.42l-0.238,0.546c-0.336-0.182-0.854-0.392-1.597-0.392c-1.807,0-2.731,1.387-2.731,2.969    c0,1.751,1.106,2.9,2.662,2.9c0.798,0,1.316-0.224,1.681-0.378L209.484,31.354z"/>
		<path d="M211.092,21.703h0.658v4.426h0.028c0.196-0.378,0.519-0.742,0.925-0.98c0.378-0.238,0.84-0.378,1.358-0.378    c0.63,0,2.326,0.322,2.326,2.816v4.062h-0.659V27.67c0-1.219-0.476-2.325-1.849-2.325c-0.953,0-1.751,0.686-2.031,1.527    c-0.07,0.196-0.098,0.392-0.098,0.658v4.118h-0.658V21.703z"/>
		<path d="M222.77,30.051c0,0.532,0.028,1.079,0.098,1.597h-0.602l-0.098-0.966h-0.042c-0.322,0.518-1.064,1.121-2.143,1.121    c-1.345,0-1.975-0.953-1.975-1.849c0-1.555,1.373-2.494,4.104-2.465V27.32c0-0.672-0.126-2.003-1.723-1.989    c-0.588,0-1.205,0.154-1.681,0.504l-0.21-0.49c0.602-0.406,1.359-0.575,1.961-0.575c1.947,0,2.312,1.457,2.312,2.662V30.051z     M222.111,28.048c-1.471-0.042-3.404,0.182-3.404,1.793c0,0.967,0.645,1.401,1.345,1.401c1.121,0,1.751-0.687,1.989-1.345    c0.042-0.14,0.07-0.28,0.07-0.406V28.048z"/>
		<path d="M224.952,26.941c0-0.672-0.028-1.373-0.056-2.017h0.616l0.028,1.359h0.028c0.294-0.841,0.995-1.513,1.919-1.513    c0.084,0,0.182,0.014,0.266,0.028v0.644c-0.098-0.028-0.196-0.028-0.322-0.028c-0.924,0-1.583,0.798-1.765,1.877    c-0.028,0.196-0.056,0.42-0.056,0.645v3.712h-0.658V26.941z"/>
		<path d="M233.256,30.051c0,0.532,0.028,1.079,0.098,1.597h-0.602l-0.098-0.966h-0.042c-0.322,0.518-1.064,1.121-2.143,1.121    c-1.345,0-1.975-0.953-1.975-1.849c0-1.555,1.373-2.494,4.104-2.465V27.32c0-0.672-0.126-2.003-1.723-1.989    c-0.588,0-1.205,0.154-1.681,0.504l-0.21-0.49c0.602-0.406,1.359-0.575,1.961-0.575c1.947,0,2.312,1.457,2.312,2.662V30.051z     M232.597,28.048c-1.471-0.042-3.404,0.182-3.404,1.793c0,0.967,0.645,1.401,1.345,1.401c1.121,0,1.751-0.687,1.989-1.345    c0.042-0.14,0.07-0.28,0.07-0.406V28.048z"/>
		<path d="M240.073,31.354c-0.293,0.154-0.994,0.448-1.961,0.448c-1.947,0-3.235-1.415-3.235-3.446c0-2.129,1.457-3.586,3.474-3.586    c0.826,0,1.499,0.238,1.766,0.42l-0.238,0.546c-0.336-0.182-0.854-0.392-1.598-0.392c-1.807,0-2.731,1.387-2.731,2.969    c0,1.751,1.106,2.9,2.662,2.9c0.798,0,1.316-0.224,1.681-0.378L240.073,31.354z"/>
		<path d="M242.76,23.439v1.485h1.919v0.532h-1.919v4.371c0,0.854,0.267,1.4,0.98,1.4c0.351,0,0.603-0.056,0.771-0.112l0.084,0.518    c-0.225,0.098-0.532,0.168-0.938,0.168c-0.49,0-0.896-0.168-1.148-0.491c-0.308-0.35-0.421-0.91-0.421-1.597v-4.258h-1.135v-0.532    h1.135v-1.233L242.76,23.439z"/>
		<path d="M246.175,28.216c0,2.157,1.177,2.998,2.563,2.998c0.98,0,1.485-0.196,1.863-0.378l0.168,0.532    c-0.252,0.14-0.938,0.435-2.115,0.435c-1.933,0-3.138-1.415-3.138-3.39c0-2.241,1.289-3.642,3.025-3.642    c2.199,0,2.619,2.073,2.619,3.04c0,0.182,0,0.294-0.027,0.406H246.175z M250.462,27.684c0.014-0.938-0.379-2.367-2.004-2.367    c-1.484,0-2.129,1.331-2.24,2.367H250.462z"/>
		<path d="M252.867,26.941c0-0.672-0.028-1.373-0.056-2.017h0.615l0.029,1.359h0.027c0.294-0.841,0.994-1.513,1.919-1.513    c0.084,0,0.183,0.014,0.267,0.028v0.644c-0.099-0.028-0.196-0.028-0.322-0.028c-0.925,0-1.583,0.798-1.766,1.877    c-0.027,0.196-0.056,0.42-0.056,0.645v3.712h-0.658V26.941z"/>
	</g>
	<g>
		<g>
			
				<line fill="none" stroke="#000000" stroke-width="1.5" stroke-miterlimit="10" x1="216.038" y1="32.908" x2="202.864" y2="71.848"/>
			<g>
				<path d="M201.704,75.278c-0.053-1.816-0.397-4.165-1.06-5.772l2.372,1.892l3.033-0.063      C204.548,72.21,202.849,73.867,201.704,75.278z"/>
			</g>
		</g>
	</g>
	<g>
		<path fill="#D34F1D" d="M263.581,65.333h0.658v4.468h0.027c0.449-0.868,1.275-1.401,2.466-1.401c1.695,0,2.872,1.415,2.872,3.446    c0,2.395-1.527,3.586-2.998,3.586c-1.078,0-1.877-0.435-2.409-1.373h-0.028l-0.042,1.219h-0.603    c0.028-0.476,0.057-1.064,0.057-1.569V65.333z M264.239,72.687c0,0.154,0.027,0.322,0.057,0.49    c0.293,1.022,1.162,1.695,2.213,1.695c1.541,0,2.423-1.261,2.423-3.012c0-1.541-0.841-2.914-2.367-2.914    c-0.98,0-1.919,0.687-2.241,1.807c-0.042,0.168-0.084,0.35-0.084,0.588V72.687z"/>
		<path fill="#D34F1D" d="M277.052,71.847c0,2.521-1.723,3.586-3.222,3.586c-1.737,0-3.081-1.359-3.081-3.46    c0-2.312,1.512-3.572,3.18-3.572C275.792,68.4,277.052,69.787,277.052,71.847z M271.421,71.931c0,1.681,1.078,2.941,2.451,2.941    c1.4,0,2.508-1.261,2.508-2.983c0-1.233-0.701-2.942-2.465-2.942C272.206,68.947,271.421,70.488,271.421,71.931z"/>
		<path fill="#D34F1D" d="M278.561,68.555l1.121,3.824c0.237,0.784,0.435,1.457,0.574,2.101h0.042    c0.168-0.616,0.393-1.331,0.672-2.101l1.346-3.824h0.63l1.288,3.796c0.267,0.813,0.477,1.499,0.658,2.129h0.029    c0.14-0.63,0.35-1.303,0.602-2.115l1.205-3.81h0.686l-2.24,6.724h-0.589l-1.261-3.74c-0.294-0.812-0.518-1.541-0.7-2.297h-0.028    c-0.195,0.798-0.448,1.541-0.729,2.311l-1.344,3.726h-0.589l-2.06-6.724H278.561z"/>
		<path fill="#D34F1D" d="M288.795,65.333h0.658v9.945h-0.658V65.333z"/>
	</g>
	<g>
		<path fill="#D34F1D" d="M300.73,74.396c0.364,0.224,0.911,0.462,1.513,0.462c1.064,0,1.568-0.574,1.568-1.274    c0-0.743-0.447-1.135-1.414-1.527c-1.107-0.42-1.709-1.022-1.709-1.835c0-0.967,0.756-1.821,2.073-1.821    c0.616,0,1.134,0.182,1.484,0.42l-0.267,0.546c-0.224-0.168-0.658-0.406-1.33-0.406c-0.854,0-1.303,0.546-1.303,1.163    c0,0.7,0.477,1.008,1.387,1.387c1.093,0.42,1.737,0.966,1.737,1.989c0,1.148-0.896,1.933-2.27,1.933    c-0.658,0-1.261-0.196-1.709-0.477L300.73,74.396z"/>
		<path fill="#D34F1D" d="M306.232,65.333h0.658v4.426h0.028c0.195-0.378,0.518-0.742,0.924-0.98    c0.379-0.238,0.841-0.378,1.359-0.378c0.63,0,2.325,0.322,2.325,2.816v4.062h-0.659V71.3c0-1.219-0.476-2.325-1.849-2.325    c-0.952,0-1.751,0.686-2.03,1.527c-0.07,0.196-0.099,0.392-0.099,0.658v4.118h-0.658V65.333z"/>
		<path fill="#D34F1D" d="M319.479,71.847c0,2.521-1.723,3.586-3.223,3.586c-1.736,0-3.081-1.359-3.081-3.46    c0-2.312,1.513-3.572,3.18-3.572C318.219,68.4,319.479,69.787,319.479,71.847z M313.849,71.931c0,1.681,1.078,2.941,2.451,2.941    c1.4,0,2.508-1.261,2.508-2.983c0-1.233-0.701-2.942-2.466-2.942C314.633,68.947,313.849,70.488,313.849,71.931z"/>
		<path fill="#D34F1D" d="M326.353,73.64c0,0.588,0.028,1.121,0.057,1.639h-0.617l-0.041-1.19h-0.029    c-0.336,0.616-1.105,1.345-2.311,1.345c-0.854,0-2.283-0.42-2.283-2.97v-3.908h0.658v3.782c0,1.457,0.463,2.507,1.793,2.507    c0.98,0,1.695-0.687,1.975-1.359c0.07-0.21,0.141-0.476,0.141-0.742v-4.188h0.658V73.64z"/>
		<path fill="#D34F1D" d="M328.618,65.333h0.658v9.945h-0.658V65.333z"/>
		<path fill="#D34F1D" d="M336.937,65.333v8.376c0,0.504,0.028,1.093,0.057,1.569h-0.603l-0.042-1.275h-0.028    c-0.351,0.743-1.148,1.429-2.396,1.429c-1.652,0-2.899-1.387-2.899-3.39c-0.014-2.241,1.373-3.642,3.026-3.642    c1.162,0,1.891,0.603,2.199,1.177h0.027v-4.244H336.937z M336.278,71.216c0-0.182-0.027-0.435-0.07-0.617    c-0.238-0.896-1.022-1.653-2.115-1.653c-1.471,0-2.395,1.275-2.395,3.026c0,1.513,0.756,2.899,2.354,2.899    c0.966,0,1.862-0.63,2.156-1.751c0.043-0.182,0.07-0.35,0.07-0.56V71.216z"/>
		<path fill="#D34F1D" d="M339.3,71.847c0,2.157,1.176,2.998,2.563,2.998c0.98,0,1.485-0.196,1.863-0.378l0.168,0.532    c-0.252,0.14-0.938,0.435-2.115,0.435c-1.933,0-3.137-1.415-3.137-3.39c0-2.241,1.288-3.642,3.025-3.642    c2.199,0,2.619,2.073,2.619,3.04c0,0.182,0,0.294-0.027,0.406H339.3z M343.586,71.314c0.015-0.938-0.378-2.367-2.003-2.367    c-1.484,0-2.129,1.331-2.241,2.367H343.586z"/>
		<path fill="#D34F1D" d="M345.991,70.572c0-0.672-0.028-1.373-0.057-2.017h0.617l0.027,1.359h0.028    c0.294-0.841,0.995-1.513,1.919-1.513c0.084,0,0.182,0.014,0.266,0.028v0.644c-0.098-0.028-0.195-0.028-0.322-0.028    c-0.924,0-1.582,0.798-1.764,1.877c-0.029,0.196-0.057,0.42-0.057,0.645v3.712h-0.658V70.572z"/>
	</g>
	<path fill="#D34F1D" d="M402.155,61.036v1.933c5.315,0.483,5.477,0.805,5.477,5.879v16.429h6.362v-27.06   C410.854,59.184,406.021,60.473,402.155,61.036z"/>
	<g>
		<path fill="#D34F1D" d="M390.582,52.515c0,0.532,0.028,1.079,0.098,1.597h-0.603l-0.098-0.966h-0.042    c-0.322,0.518-1.064,1.121-2.144,1.121c-1.344,0-1.975-0.953-1.975-1.849c0-1.555,1.373-2.494,4.104-2.465v-0.168    c0-0.672-0.125-2.003-1.723-1.989c-0.588,0-1.204,0.154-1.681,0.504l-0.21-0.49c0.602-0.406,1.359-0.575,1.961-0.575    c1.947,0,2.312,1.457,2.312,2.662V52.515z M389.923,50.512c-1.471-0.042-3.403,0.182-3.403,1.793c0,0.967,0.645,1.401,1.345,1.401    c1.121,0,1.751-0.687,1.989-1.345c0.042-0.14,0.069-0.28,0.069-0.406V50.512z"/>
		<path fill="#D34F1D" d="M392.483,53.229c0.364,0.224,0.91,0.462,1.513,0.462c1.064,0,1.569-0.574,1.569-1.274    c0-0.743-0.449-1.135-1.415-1.527c-1.106-0.42-1.709-1.022-1.709-1.835c0-0.967,0.757-1.821,2.073-1.821    c0.616,0,1.135,0.182,1.484,0.42l-0.266,0.546c-0.225-0.168-0.658-0.406-1.331-0.406c-0.854,0-1.303,0.546-1.303,1.163    c0,0.7,0.477,1.008,1.387,1.387c1.093,0.42,1.737,0.966,1.737,1.989c0,1.148-0.896,1.933-2.27,1.933    c-0.658,0-1.261-0.196-1.709-0.477L392.483,53.229z"/>
		<path fill="#D34F1D" d="M402.622,53.818c-0.295,0.154-0.995,0.448-1.961,0.448c-1.947,0-3.236-1.415-3.236-3.446    c0-2.129,1.457-3.586,3.475-3.586c0.826,0,1.498,0.238,1.764,0.42l-0.237,0.546c-0.337-0.182-0.854-0.392-1.597-0.392    c-1.807,0-2.732,1.387-2.732,2.969c0,1.751,1.107,2.9,2.662,2.9c0.799,0,1.316-0.224,1.681-0.378L402.622,53.818z"/>
		<path fill="#D34F1D" d="M404.327,50.68c0,2.157,1.177,2.998,2.563,2.998c0.98,0,1.485-0.196,1.863-0.378l0.168,0.532    c-0.252,0.14-0.938,0.435-2.115,0.435c-1.933,0-3.138-1.415-3.138-3.39c0-2.241,1.289-3.642,3.025-3.642    c2.199,0,2.619,2.073,2.619,3.04c0,0.182,0,0.294-0.027,0.406H404.327z M408.614,50.147c0.014-0.938-0.379-2.367-2.004-2.367    c-1.484,0-2.129,1.331-2.24,2.367H408.614z"/>
		<path fill="#D34F1D" d="M411.02,48.999c0-0.616-0.028-1.079-0.056-1.611h0.615l0.057,1.219h0.027    c0.365-0.756,1.205-1.373,2.313-1.373c0.644,0,2.339,0.322,2.339,2.844v4.034h-0.659v-3.978c0-1.219-0.476-2.325-1.862-2.325    c-0.952,0-1.751,0.672-2.017,1.541c-0.057,0.168-0.099,0.393-0.099,0.603v4.16h-0.658V48.999z"/>
		<path fill="#D34F1D" d="M423.874,44.167v8.376c0,0.504,0.028,1.093,0.057,1.569h-0.603l-0.042-1.275h-0.028    c-0.351,0.743-1.148,1.429-2.396,1.429c-1.652,0-2.899-1.387-2.899-3.39c-0.014-2.241,1.373-3.642,3.026-3.642    c1.162,0,1.891,0.603,2.199,1.177h0.027v-4.244H423.874z M423.216,50.05c0-0.182-0.027-0.435-0.07-0.617    c-0.238-0.896-1.022-1.653-2.115-1.653c-1.471,0-2.395,1.275-2.395,3.026c0,1.513,0.756,2.899,2.354,2.899    c0.966,0,1.862-0.63,2.156-1.751c0.043-0.182,0.07-0.35,0.07-0.56V50.05z"/>
		<path fill="#D34F1D" d="M426.237,50.68c0,2.157,1.176,2.998,2.563,2.998c0.98,0,1.485-0.196,1.863-0.378l0.168,0.532    c-0.252,0.14-0.938,0.435-2.115,0.435c-1.933,0-3.137-1.415-3.137-3.39c0-2.241,1.288-3.642,3.025-3.642    c2.199,0,2.619,2.073,2.619,3.04c0,0.182,0,0.294-0.027,0.406H426.237z M430.523,50.147c0.015-0.938-0.378-2.367-2.003-2.367    c-1.484,0-2.129,1.331-2.241,2.367H430.523z"/>
		<path fill="#D34F1D" d="M432.929,49.405c0-0.672-0.028-1.373-0.057-2.017h0.617l0.027,1.359h0.028    c0.294-0.841,0.995-1.513,1.919-1.513c0.084,0,0.182,0.014,0.266,0.028v0.644c-0.098-0.028-0.195-0.028-0.322-0.028    c-0.924,0-1.582,0.798-1.764,1.877c-0.029,0.196-0.057,0.42-0.057,0.645v3.712h-0.658V49.405z"/>
	</g>
	<g>
		<path fill="#D34F1D" d="M438.246,135v8.376c0,0.505,0.028,1.094,0.056,1.569H437.7l-0.043-1.274h-0.027    c-0.35,0.742-1.148,1.429-2.396,1.429c-1.653,0-2.899-1.387-2.899-3.39c-0.014-2.242,1.373-3.643,3.025-3.643    c1.163,0,1.892,0.603,2.199,1.177h0.028V135H438.246z M437.588,140.884c0-0.183-0.028-0.436-0.069-0.617    c-0.238-0.896-1.023-1.652-2.115-1.652c-1.471,0-2.396,1.274-2.396,3.025c0,1.513,0.757,2.899,2.354,2.899    c0.967,0,1.863-0.63,2.158-1.751c0.041-0.182,0.069-0.35,0.069-0.561V140.884z"/>
		<path fill="#D34F1D" d="M440.609,141.514c0,2.157,1.177,2.997,2.563,2.997c0.98,0,1.484-0.195,1.863-0.378l0.168,0.532    c-0.252,0.141-0.939,0.435-2.115,0.435c-1.934,0-3.139-1.415-3.139-3.39c0-2.242,1.289-3.643,3.026-3.643    c2.199,0,2.619,2.073,2.619,3.04c0,0.183,0,0.294-0.028,0.406H440.609z M444.896,140.981c0.014-0.939-0.379-2.367-2.003-2.367    c-1.485,0-2.13,1.33-2.241,2.367H444.896z"/>
		<path fill="#D34F1D" d="M447.021,144.063c0.364,0.224,0.91,0.461,1.513,0.461c1.064,0,1.569-0.574,1.569-1.273    c0-0.743-0.449-1.135-1.415-1.527c-1.106-0.42-1.709-1.022-1.709-1.835c0-0.967,0.757-1.821,2.073-1.821    c0.616,0,1.135,0.182,1.484,0.42l-0.266,0.547c-0.225-0.168-0.658-0.406-1.331-0.406c-0.854,0-1.303,0.547-1.303,1.162    c0,0.701,0.477,1.009,1.387,1.387c1.093,0.421,1.737,0.967,1.737,1.99c0,1.148-0.896,1.933-2.27,1.933    c-0.658,0-1.261-0.196-1.709-0.477L447.021,144.063z"/>
		<path fill="#D34F1D" d="M457.159,144.651c-0.295,0.154-0.995,0.448-1.961,0.448c-1.947,0-3.236-1.415-3.236-3.446    c0-2.129,1.457-3.586,3.475-3.586c0.826,0,1.498,0.238,1.764,0.42l-0.237,0.547c-0.337-0.182-0.854-0.393-1.597-0.393    c-1.807,0-2.732,1.387-2.732,2.97c0,1.751,1.107,2.899,2.662,2.899c0.799,0,1.316-0.224,1.681-0.378L457.159,144.651z"/>
		<path fill="#D34F1D" d="M458.864,141.514c0,2.157,1.177,2.997,2.563,2.997c0.98,0,1.485-0.195,1.863-0.378l0.168,0.532    c-0.252,0.141-0.938,0.435-2.115,0.435c-1.933,0-3.138-1.415-3.138-3.39c0-2.242,1.289-3.643,3.025-3.643    c2.199,0,2.619,2.073,2.619,3.04c0,0.183,0,0.294-0.027,0.406H458.864z M463.151,140.981c0.014-0.939-0.379-2.367-2.004-2.367    c-1.484,0-2.129,1.33-2.24,2.367H463.151z"/>
		<path fill="#D34F1D" d="M465.557,139.833c0-0.617-0.028-1.079-0.056-1.611h0.615l0.057,1.219h0.027    c0.365-0.756,1.205-1.373,2.313-1.373c0.644,0,2.339,0.322,2.339,2.844v4.034h-0.659v-3.978c0-1.219-0.476-2.326-1.862-2.326    c-0.952,0-1.751,0.673-2.017,1.541c-0.057,0.168-0.099,0.393-0.099,0.603v4.16h-0.658V139.833z"/>
		<path fill="#D34F1D" d="M478.411,135v8.376c0,0.505,0.028,1.094,0.057,1.569h-0.603l-0.042-1.274h-0.028    c-0.351,0.742-1.148,1.429-2.396,1.429c-1.652,0-2.899-1.387-2.899-3.39c-0.014-2.242,1.373-3.643,3.026-3.643    c1.162,0,1.891,0.603,2.199,1.177h0.027V135H478.411z M477.753,140.884c0-0.183-0.027-0.436-0.07-0.617    c-0.238-0.896-1.022-1.652-2.115-1.652c-1.471,0-2.395,1.274-2.395,3.025c0,1.513,0.756,2.899,2.354,2.899    c0.966,0,1.862-0.63,2.156-1.751c0.043-0.182,0.07-0.35,0.07-0.561V140.884z"/>
		<path fill="#D34F1D" d="M480.774,141.514c0,2.157,1.176,2.997,2.563,2.997c0.98,0,1.485-0.195,1.863-0.378l0.168,0.532    c-0.252,0.141-0.938,0.435-2.115,0.435c-1.933,0-3.137-1.415-3.137-3.39c0-2.242,1.288-3.643,3.025-3.643    c2.199,0,2.619,2.073,2.619,3.04c0,0.183,0,0.294-0.027,0.406H480.774z M485.061,140.981c0.015-0.939-0.378-2.367-2.003-2.367    c-1.484,0-2.129,1.33-2.241,2.367H485.061z"/>
		<path fill="#D34F1D" d="M487.466,140.239c0-0.673-0.028-1.373-0.057-2.018h0.617l0.027,1.359h0.028    c0.294-0.842,0.995-1.514,1.919-1.514c0.084,0,0.182,0.014,0.266,0.028v0.644c-0.098-0.027-0.195-0.027-0.322-0.027    c-0.924,0-1.582,0.799-1.764,1.877c-0.029,0.196-0.057,0.42-0.057,0.645v3.712h-0.658V140.239z"/>
	</g>
	<path fill="#D34F1D" d="M458.271,116.525c-0.023,0.081-0.031,0.159-0.059,0.242c-0.403,1.047-1.047,2.738-2.497,5.557   c-1.933,3.543-3.463,5.557-6.04,7.087c-1.369,0.967-2.014,1.691-2.014,2.98c0,1.933,2.255,3.866,4.51,3.866   c1.128,0,2.175-0.403,2.577-2.014c1.001-3.789,2.516-7.845,6.616-17.718H458.271z"/>
	<path fill="#D34F1D" d="M372.596,125.626v-10.55v-5.637V87.694v-2.738v-6.362c-2.01,0.812-4.221,1.575-6.362,2.2v9.236v36.402   v8.456h6.362V125.626z"/>
	<g>
		<path fill="#D34F1D" d="M359.591,144.063c0.363,0.225,0.91,0.462,1.512,0.462c1.064,0,1.569-0.574,1.569-1.274    c0-0.742-0.448-1.135-1.415-1.527c-1.106-0.42-1.709-1.021-1.709-1.834c0-0.967,0.757-1.822,2.074-1.822    c0.615,0,1.134,0.183,1.484,0.421l-0.267,0.546c-0.224-0.168-0.658-0.406-1.331-0.406c-0.854,0-1.303,0.547-1.303,1.163    c0,0.7,0.477,1.009,1.387,1.387c1.094,0.421,1.737,0.966,1.737,1.989c0,1.148-0.896,1.934-2.269,1.934    c-0.658,0-1.262-0.197-1.709-0.477L359.591,144.063z"/>
		<path fill="#D34F1D" d="M366.017,136.737v1.484h1.919v0.533h-1.919v4.37c0,0.854,0.266,1.4,0.98,1.4    c0.35,0,0.603-0.056,0.771-0.112l0.084,0.519c-0.224,0.099-0.532,0.169-0.938,0.169c-0.49,0-0.896-0.169-1.148-0.49    c-0.309-0.352-0.42-0.911-0.42-1.598v-4.258h-1.135v-0.533h1.135v-1.232L366.017,136.737z"/>
		<path fill="#D34F1D" d="M369.432,141.515c0,2.156,1.177,2.997,2.563,2.997c0.98,0,1.484-0.196,1.863-0.378l0.168,0.531    c-0.252,0.141-0.938,0.436-2.115,0.436c-1.934,0-3.138-1.416-3.138-3.391c0-2.241,1.288-3.643,3.026-3.643    c2.199,0,2.619,2.074,2.619,3.041c0,0.182,0,0.293-0.028,0.406H369.432z M373.718,140.981c0.015-0.938-0.378-2.367-2.002-2.367    c-1.485,0-2.13,1.331-2.242,2.367H373.718z"/>
		<path fill="#D34F1D" d="M376.124,139.833c0-0.616-0.028-1.078-0.057-1.611h0.617l0.056,1.191h0.028    c0.42-0.771,1.064-1.346,2.171-1.346c0.938,0,1.653,0.617,1.933,1.472h0.028c0.196-0.406,0.435-0.7,0.687-0.911    c0.434-0.363,0.896-0.561,1.611-0.561c0.658,0,2.185,0.365,2.185,2.914v3.965h-0.658v-3.895c0-1.513-0.589-2.409-1.751-2.409    c-0.84,0-1.513,0.616-1.766,1.331c-0.069,0.195-0.125,0.42-0.125,0.658v4.314h-0.658v-4.203c0-1.219-0.589-2.101-1.668-2.101    c-0.91,0-1.61,0.728-1.862,1.513c-0.07,0.182-0.112,0.42-0.112,0.645v4.146h-0.658V139.833z"/>
	</g>
	<path fill="#D34F1D" d="M413.994,107.264v6.122h4.496C414.36,112.907,413.994,112.14,413.994,107.264z"/>
	<g>
		<path fill="#D34F1D" d="M398.8,119.125h0.658v4.468h0.028c0.448-0.868,1.274-1.401,2.466-1.401c1.695,0,2.871,1.415,2.871,3.446    c0,2.395-1.527,3.586-2.998,3.586c-1.078,0-1.877-0.435-2.408-1.373h-0.028l-0.042,1.219h-0.603    c0.028-0.476,0.056-1.064,0.056-1.569V119.125z M399.458,126.479c0,0.154,0.028,0.322,0.057,0.49    c0.294,1.022,1.162,1.695,2.213,1.695c1.541,0,2.424-1.261,2.424-3.012c0-1.541-0.841-2.914-2.367-2.914    c-0.98,0-1.92,0.687-2.242,1.807c-0.041,0.168-0.084,0.35-0.084,0.588V126.479z"/>
		<path fill="#D34F1D" d="M406.528,124.364c0-0.672-0.028-1.373-0.057-2.017h0.617l0.027,1.359h0.028    c0.294-0.841,0.995-1.513,1.919-1.513c0.084,0,0.182,0.014,0.266,0.028v0.644c-0.098-0.028-0.195-0.028-0.322-0.028    c-0.924,0-1.582,0.798-1.764,1.877c-0.029,0.196-0.057,0.42-0.057,0.645v3.712h-0.658V124.364z"/>
		<path fill="#D34F1D" d="M414.833,127.474c0,0.532,0.027,1.079,0.098,1.597h-0.603l-0.099-0.966h-0.041    c-0.322,0.518-1.064,1.121-2.144,1.121c-1.345,0-1.976-0.953-1.976-1.849c0-1.555,1.373-2.494,4.104-2.465v-0.168    c0-0.672-0.126-2.003-1.723-1.989c-0.589,0-1.204,0.154-1.681,0.504l-0.211-0.49c0.603-0.406,1.359-0.575,1.961-0.575    c1.947,0,2.313,1.457,2.313,2.662V127.474z M414.174,125.471c-1.471-0.042-3.403,0.182-3.403,1.793    c0,0.967,0.645,1.401,1.344,1.401c1.121,0,1.752-0.687,1.99-1.345c0.041-0.14,0.069-0.28,0.069-0.406V125.471z"/>
		<path fill="#D34F1D" d="M421.65,128.777c-0.294,0.154-0.995,0.448-1.961,0.448c-1.947,0-3.235-1.415-3.235-3.446    c0-2.129,1.457-3.586,3.474-3.586c0.826,0,1.499,0.238,1.765,0.42l-0.238,0.546c-0.336-0.182-0.854-0.392-1.597-0.392    c-1.807,0-2.731,1.387-2.731,2.969c0,1.751,1.106,2.9,2.662,2.9c0.798,0,1.316-0.224,1.68-0.378L421.65,128.777z"/>
		<path fill="#D34F1D" d="M423.917,125.583h0.027c0.168-0.21,0.448-0.519,0.658-0.743l2.367-2.493h0.813l-2.717,2.788l3.096,3.936    h-0.813l-2.746-3.53l-0.686,0.728v2.802h-0.658v-9.945h0.658V125.583z"/>
		<path fill="#D34F1D" d="M429.432,125.639c0,2.157,1.177,2.998,2.563,2.998c0.98,0,1.484-0.196,1.863-0.378l0.168,0.532    c-0.252,0.14-0.938,0.435-2.115,0.435c-1.934,0-3.138-1.415-3.138-3.39c0-2.241,1.288-3.642,3.026-3.642    c2.199,0,2.619,2.073,2.619,3.04c0,0.182,0,0.294-0.028,0.406H429.432z M433.718,125.106c0.015-0.938-0.378-2.367-2.002-2.367    c-1.485,0-2.13,1.331-2.242,2.367H433.718z"/>
		<path fill="#D34F1D" d="M437.048,120.862v1.485h1.919v0.532h-1.919v4.371c0,0.854,0.266,1.4,0.98,1.4    c0.35,0,0.603-0.056,0.771-0.112l0.084,0.518c-0.224,0.098-0.532,0.168-0.938,0.168c-0.49,0-0.896-0.168-1.148-0.49    c-0.309-0.351-0.42-0.911-0.42-1.597v-4.258h-1.135v-0.532h1.135v-1.232L437.048,120.862z"/>
	</g>
</g>
</svg>